<svg xmlns="http://www.w3.org/2000/svg" viewBox="0 0 64 96"><style>.whikari{animation:brhikari 2.4s ease-in-out -3.70s infinite;transform-origin:50% 100%;transform-box:view-box}@keyframes brhikari{0%,100%{transform:scaleY(1)}50%{transform:scaleY(1.018)}}</style><defs><linearGradient id="g_hikari" x1="0" y1="0" x2="0" y2="1"><stop offset="0" stop-color="#CE4E43"/><stop offset="1" stop-color="#B13328"/></linearGradient></defs><g class="whikari"><path d="M20.8,16 Q20,30 24,32 L40,32 Q44,30 43.2,16 Q40,7 32,7 Q24,7 20.8,16 Z" fill="#1C1B26"/><rect x="25.6" y="60" width="5.6" height="33" rx="2.7" fill="#3C4059"/><rect x="32.8" y="60" width="5.6" height="33" rx="2.7" fill="#3C4059"/><path d="M23.6,96 Q23.6,91.4 28.2,91.4 Q31.4,91.4 31.4,94 L31.4,96 Z" fill="#2E2A3B"/><path d="M32.6,96 L32.6,94 Q32.6,91.4 35.8,91.4 Q40.4,91.4 40.4,96 Z" fill="#2E2A3B"/><rect x="29.8" y="25" width="4.4" height="7" fill="#D8A982"/><path d="M32,30.4 Q41.6,30.4 43.6,38 L45.4,57.5 Q46.2,65.5 38,65.5 L26,65.5 Q17.8,65.5 18.6,57.5 L20.4,38 Q22.4,30.4 32,30.4 Z" fill="url(#g_hikari)"/><path d="M29,31 L32,39 L35,31 Q32,30.2 29,31 Z" fill="#FBF7EE"/><path d="M29.2,30.9 L32,38.6 L29.2,41 L26.2,32.6 Z" fill="#912A21"/><path d="M34.8,30.9 L32,38.6 L34.8,41 L37.8,32.6 Z" fill="#912A21"/><circle cx="32" cy="46" r="0.9" fill="#912A21"/><circle cx="32" cy="52" r="0.9" fill="#912A21"/><path d="M21.5,37 Q19.5,46 19,54" stroke="#B13328" stroke-width="5" fill="none" stroke-linecap="round"/><circle cx="19" cy="55.5" r="2.4" fill="#F0BC90"/><path d="M42.5,37 Q48,45 40.5,49" stroke="#B13328" stroke-width="5" fill="none" stroke-linecap="round"/><circle cx="39.5" cy="49.5" r="2.4" fill="#F0BC90"/><circle cx="32" cy="19" r="10.2" fill="#F0BC90"/><path d="M21.8,20 Q21.4,8.6 32,8.4 Q42.6,8.6 42.2,20 Q41.5,14 39,15.5 Q38,12.5 34.5,14.5 Q32.5,11.5 29.5,14.5 Q26.5,12.5 25,15.5 Q22.5,14 21.8,20 Z" fill="#201F2B"/><circle cx="27.8" cy="20.6" r="1.15" fill="#2A2A35"/><circle cx="36.2" cy="20.6" r="1.15" fill="#2A2A35"/><path d="M26.4,17.4 Q27.8,16.6 29.2,17.2 M34.8,17.2 Q36.2,16.6 37.6,17.4" stroke="#4A4050" stroke-width="0.8" fill="none" stroke-linecap="round" opacity="0.7"/><path d="M30.4,25 Q32,26.6 33.6,25" stroke="#B0654A" stroke-width="1" fill="none" stroke-linecap="round"/><ellipse cx="25" cy="23.6" rx="1.9" ry="1.15" fill="#F2937E" opacity="0.42"/><ellipse cx="39" cy="23.6" rx="1.9" ry="1.15" fill="#F2937E" opacity="0.42"/><path d="M38.2,49.8 L51,42.4 L51,55.4 Z" fill="#B93529"/><rect x="36.2" y="47.6" width="3.4" height="4.6" rx="1.2" fill="#7E2A21"/><path d="M53.2,45.5 Q55.6,48.9 53.2,52.3" stroke="#F2937E" stroke-width="1.2" fill="none" stroke-linecap="round"/></g></svg>