<svg xmlns="http://www.w3.org/2000/svg" viewBox="0 0 64 96"><style>.whirome{animation:brhirome 2.6s ease-in-out -4.07s infinite;transform-origin:50% 100%;transform-box:view-box}@keyframes brhirome{0%,100%{transform:scaleY(1)}50%{transform:scaleY(1.018)}}</style><defs><linearGradient id="g_hirome" x1="0" y1="0" x2="0" y2="1"><stop offset="0" stop-color="#F2776C"/><stop offset="1" stop-color="#D35C51"/></linearGradient></defs><g class="whirome"><path d="M40.5,14 Q49,16.5 47.5,31 Q47,37 44.5,37.5 Q46.5,26 40,19 Z" fill="#BF9D5D"/><circle cx="42.4" cy="16.6" r="1.5" fill="#E64539"/><rect x="25.6" y="60" width="5.6" height="33" rx="2.7" fill="#4E4A5A"/><rect x="32.8" y="60" width="5.6" height="33" rx="2.7" fill="#4E4A5A"/><path d="M23.6,96 Q23.6,91.4 28.2,91.4 Q31.4,91.4 31.4,94 L31.4,96 Z" fill="#2E2A3B"/><path d="M32.6,96 L32.6,94 Q32.6,91.4 35.8,91.4 Q40.4,91.4 40.4,96 Z" fill="#2E2A3B"/><rect x="29.8" y="25" width="4.4" height="7" fill="#DDB590"/><path d="M32,30.4 Q41.6,30.4 43.6,38 L45.4,57.5 Q46.2,65.5 38,65.5 L26,65.5 Q17.8,65.5 18.6,57.5 L20.4,38 Q22.4,30.4 32,30.4 Z" fill="url(#g_hirome)"/><path d="M27.8,30.8 L32,35.2 L36.2,30.8 L33.8,29.6 L30.2,29.6 Z" fill="#FBF7EE"/><path d="M32,35.5 L32,64" stroke="#AD4B42" stroke-width="0.9"/><circle cx="32" cy="40" r="0.8" fill="#AD4B42"/><circle cx="32" cy="47" r="0.8" fill="#AD4B42"/><circle cx="32" cy="54" r="0.8" fill="#AD4B42"/><path d="M21.5,37 Q19.5,46 19,54" stroke="#D35C51" stroke-width="5" fill="none" stroke-linecap="round"/><circle cx="19" cy="55.5" r="2.4" fill="#F6C9A0"/><path d="M42.5,37 Q49.5,37 47.6,30" stroke="#D35C51" stroke-width="5" fill="none" stroke-linecap="round"/><circle cx="47.6" cy="28.2" r="2.4" fill="#F6C9A0"/><circle cx="32" cy="19" r="10.2" fill="#F6C9A0"/><path d="M21.8,20 Q21.4,8.6 32,8.4 Q42.6,8.6 42.2,20 Q41.5,12.5 34.5,12 Q26.5,14.5 23.8,18.6 Q22.3,16.5 21.8,20 Z" fill="#D9B26A"/><circle cx="27.8" cy="20.6" r="1.15" fill="#2A2A35"/><circle cx="36.2" cy="20.6" r="1.15" fill="#2A2A35"/><path d="M26.4,17.4 Q27.8,16.6 29.2,17.2 M34.8,17.2 Q36.2,16.6 37.6,17.4" stroke="#4A4050" stroke-width="0.8" fill="none" stroke-linecap="round" opacity="0.7"/><path d="M30.4,25 Q32,26.6 33.6,25" stroke="#B0654A" stroke-width="1" fill="none" stroke-linecap="round"/><ellipse cx="25" cy="23.6" rx="1.9" ry="1.15" fill="#F2937E" opacity="0.42"/><ellipse cx="39" cy="23.6" rx="1.9" ry="1.15" fill="#F2937E" opacity="0.42"/><path d="M45.4,26.8 L57,22 L49.4,31.6 L48.6,27.6 Z" fill="#FDFDFB"/><path d="M45.4,26.8 L57,22 L48.6,27.6 Z" fill="#E4EAF4"/><path d="M45.4,26.8 L57,22" stroke="#B8C4D6" stroke-width="0.6"/></g></svg>