<svg xmlns="http://www.w3.org/2000/svg" viewBox="0 0 64 96"><style>.wiroha{animation:briroha 2.6s ease-in-out -2.22s infinite;transform-origin:50% 100%;transform-box:view-box}@keyframes briroha{0%,100%{transform:scaleY(1)}50%{transform:scaleY(1.018)}}</style><defs><linearGradient id="g_iroha" x1="0" y1="0" x2="0" y2="1"><stop offset="0" stop-color="#54AFF7"/><stop offset="1" stop-color="#3992D8"/></linearGradient></defs><g class="wiroha"><ellipse cx="19.6" cy="26" rx="3.2" ry="8" fill="#AC6337"/><ellipse cx="44.4" cy="26" rx="3.2" ry="8" fill="#AC6337"/><rect x="25.6" y="60" width="5.6" height="33" rx="2.7" fill="#575163"/><rect x="32.8" y="60" width="5.6" height="33" rx="2.7" fill="#575163"/><path d="M23.6,96 Q23.6,91.4 28.2,91.4 Q31.4,91.4 31.4,94 L31.4,96 Z" fill="#2E2A3B"/><path d="M32.6,96 L32.6,94 Q32.6,91.4 35.8,91.4 Q40.4,91.4 40.4,96 Z" fill="#2E2A3B"/><rect x="29.8" y="25" width="4.4" height="7" fill="#DDB590"/><path d="M32,30.4 Q41.6,30.4 43.6,38 L45.4,57.5 Q46.2,65.5 38,65.5 L26,65.5 Q17.8,65.5 18.6,57.5 L20.4,38 Q22.4,30.4 32,30.4 Z" fill="#F7F3EA"/><rect x="27.2" y="32.5" width="9.6" height="9" rx="1.4" fill="#41A6F6"/><path d="M25.8,41 L38.2,41 L40,63.8 Q32,66.4 24,63.8 Z" fill="#41A6F6"/><path d="M27.6,33 Q24,34.5 23,38" stroke="#2F78B1" stroke-width="1.1" fill="none"/><path d="M36.4,33 Q40,34.5 41,38" stroke="#2F78B1" stroke-width="1.1" fill="none"/><rect x="28.8" y="50" width="6.4" height="5" rx="1" fill="#2F78B1" opacity="0.85"/><path d="M21.5,37 Q16,45 23.5,49" stroke="#D9D6CE" stroke-width="5" fill="none" stroke-linecap="round"/><circle cx="24.5" cy="49.5" r="2.4" fill="#F6C9A0"/><path d="M42.5,37 Q44.5,46 45,54" stroke="#D9D6CE" stroke-width="5" fill="none" stroke-linecap="round"/><circle cx="45" cy="55.5" r="2.4" fill="#F6C9A0"/><circle cx="32" cy="19" r="10.2" fill="#F6C9A0"/><path d="M21.8,20 Q21.4,8.6 32,8.4 Q42.6,8.6 42.2,20 Q41.5,14 39,15.5 Q38,12.5 34.5,14.5 Q32.5,11.5 29.5,14.5 Q26.5,12.5 25,15.5 Q22.5,14 21.8,20 Z" fill="#C4703F"/><circle cx="27.8" cy="20.6" r="1.15" fill="#2A2A35"/><circle cx="36.2" cy="20.6" r="1.15" fill="#2A2A35"/><path d="M26.4,17.4 Q27.8,16.6 29.2,17.2 M34.8,17.2 Q36.2,16.6 37.6,17.4" stroke="#4A4050" stroke-width="0.8" fill="none" stroke-linecap="round" opacity="0.7"/><path d="M30.4,25 Q32,26.6 33.6,25" stroke="#B0654A" stroke-width="1" fill="none" stroke-linecap="round"/><ellipse cx="25" cy="23.6" rx="1.9" ry="1.15" fill="#F2937E" opacity="0.42"/><ellipse cx="39" cy="23.6" rx="1.9" ry="1.15" fill="#F2937E" opacity="0.42"/><ellipse cx="22.8" cy="50.2" rx="6.4" ry="4.6" fill="#EFE6D8"/><circle cx="20.4" cy="48.8" r="1" fill="#E64539"/><circle cx="23.4" cy="47.8" r="1" fill="#41A6F6"/><circle cx="26" cy="49.4" r="1" fill="#FFC825"/><circle cx="21.4" cy="51.8" r="1" fill="#38B764"/><path d="M45,56 L45,45.5" stroke="#B98A5A" stroke-width="1.6" stroke-linecap="round"/><path d="M45,45.5 L45,41.8 Q46.6,43.8 45,45.5 Z" fill="#41A6F6"/><path d="M43.6,44.6 Q45,40.6 46.4,44.6 Q45,46.4 43.6,44.6 Z" fill="#41A6F6"/></g></svg>