<svg xmlns="http://www.w3.org/2000/svg" viewBox="0 0 64 96"><style>.wkaketsu{animation:brkaketsu 3.2s ease-in-out -3.33s infinite;transform-origin:50% 100%;transform-box:view-box}@keyframes brkaketsu{0%,100%{transform:scaleY(1)}50%{transform:scaleY(1.018)}}</style><defs><linearGradient id="g_kaketsu" x1="0" y1="0" x2="0" y2="1"><stop offset="0" stop-color="#6FBAF2"/><stop offset="1" stop-color="#549DD3"/></linearGradient></defs><g class="wkaketsu"><rect x="25.6" y="60" width="5.6" height="33" rx="2.7" fill="#3C4059"/><rect x="32.8" y="60" width="5.6" height="33" rx="2.7" fill="#3C4059"/><path d="M23.6,96 Q23.6,91.4 28.2,91.4 Q31.4,91.4 31.4,94 L31.4,96 Z" fill="#2E2A3B"/><path d="M32.6,96 L32.6,94 Q32.6,91.4 35.8,91.4 Q40.4,91.4 40.4,96 Z" fill="#2E2A3B"/><rect x="29.8" y="25" width="4.4" height="7" fill="#C28B61"/><path d="M32,30.4 Q41.6,30.4 43.6,38 L45.4,57.5 Q46.2,65.5 38,65.5 L26,65.5 Q17.8,65.5 18.6,57.5 L20.4,38 Q22.4,30.4 32,30.4 Z" fill="url(#g_kaketsu)"/><path d="M27.5,31 Q32,33.6 36.5,31" stroke="#4480AD" stroke-width="1.6" fill="none" stroke-linecap="round"/><path d="M21.5,37 Q17,44 16.5,50" stroke="#549DD3" stroke-width="5" fill="none" stroke-linecap="round"/><circle cx="16.2" cy="51.5" r="2.4" fill="#D89A6C"/><path d="M42.5,37 Q44.5,46 45,54" stroke="#549DD3" stroke-width="5" fill="none" stroke-linecap="round"/><circle cx="45" cy="55.5" r="2.4" fill="#D89A6C"/><circle cx="32" cy="19" r="10.2" fill="#D89A6C"/><path d="M20.8,18.6 Q21,7.2 32,7.2 Q43,7.2 43.2,18.6 Z" fill="#F5D04C"/><rect x="19.4" y="17.6" width="25.2" height="3" rx="1.5" fill="#E0B93B"/><rect x="30.4" y="7.6" width="3.2" height="10" fill="#FBE98F"/><circle cx="27.8" cy="20.6" r="1.15" fill="#2A2A35"/><circle cx="36.2" cy="20.6" r="1.15" fill="#2A2A35"/><path d="M26.4,17.4 Q27.8,16.6 29.2,17.2 M34.8,17.2 Q36.2,16.6 37.6,17.4" stroke="#4A4050" stroke-width="0.8" fill="none" stroke-linecap="round" opacity="0.7"/><path d="M30.4,25 Q32,26.6 33.6,25" stroke="#B0654A" stroke-width="1" fill="none" stroke-linecap="round"/><ellipse cx="25" cy="23.6" rx="1.9" ry="1.15" fill="#F2937E" opacity="0.42"/><ellipse cx="39" cy="23.6" rx="1.9" ry="1.15" fill="#F2937E" opacity="0.42"/><path d="M16.2,51.5 L11.8,41.5" stroke="#8A93A8" stroke-width="2.6" stroke-linecap="round"/><circle cx="11" cy="39.6" r="2.9" fill="none" stroke="#8A93A8" stroke-width="2.4" stroke-dasharray="12.5 5.7"/></g></svg>