<svg xmlns="http://www.w3.org/2000/svg" viewBox="0 0 64 96"><style>.wkataribe{animation:brkataribe 3.0s ease-in-out -1.11s infinite;transform-origin:50% 100%;transform-box:view-box}@keyframes brkataribe{0%,100%{transform:scaleY(1)}50%{transform:scaleY(1.018)}}</style><defs><linearGradient id="g_kataribe" x1="0" y1="0" x2="0" y2="1"><stop offset="0" stop-color="#B89036"/><stop offset="1" stop-color="#9B741C"/></linearGradient></defs><g class="wkataribe"><path d="M20.5,16 Q19.6,40 24,42 L40,42 Q44.4,40 43.5,16 Q40,7 32,7 Q24,7 20.5,16 Z" fill="#888194"/><rect x="25.6" y="60" width="5.6" height="33" rx="2.7" fill="#5C5468"/><rect x="32.8" y="60" width="5.6" height="33" rx="2.7" fill="#5C5468"/><path d="M23.6,96 Q23.6,91.4 28.2,91.4 Q31.4,91.4 31.4,94 L31.4,96 Z" fill="#2E2A3B"/><path d="M32.6,96 L32.6,94 Q32.6,91.4 35.8,91.4 Q40.4,91.4 40.4,96 Z" fill="#2E2A3B"/><rect x="29.8" y="25" width="4.4" height="7" fill="#D19E73"/><path d="M32,30.4 Q41.6,30.4 43.6,38 L45.4,57.5 Q46.2,65.5 38,65.5 L26,65.5 Q17.8,65.5 18.6,57.5 L20.4,38 Q22.4,30.4 32,30.4 Z" fill="url(#g_kataribe)"/><path d="M26.5,31.5 Q32,34.5 37.5,31.5" stroke="#7F5F17" stroke-width="2.2" fill="none" stroke-linecap="round"/><path d="M22,58 Q32,60.5 42,58" stroke="#7F5F17" stroke-width="1.4" fill="none" opacity="0.55"/><path d="M21.5,37 Q16,45 23.5,49" stroke="#9B741C" stroke-width="5" fill="none" stroke-linecap="round"/><circle cx="24.5" cy="49.5" r="2.4" fill="#E8B080"/><path d="M42.5,37 Q44.5,46 45,54" stroke="#9B741C" stroke-width="5" fill="none" stroke-linecap="round"/><circle cx="45" cy="55.5" r="2.4" fill="#E8B080"/><circle cx="32" cy="19" r="10.2" fill="#E8B080"/><path d="M21.8,20 Q21.4,8.6 32,8.4 Q42.6,8.6 42.2,20 Q41.6,13 33.8,12.4 L32,9.6 L30.2,12.4 Q22.4,13 21.8,20 Z" fill="#9A93A8"/><circle cx="27.8" cy="20.6" r="1.15" fill="#2A2A35"/><circle cx="36.2" cy="20.6" r="1.15" fill="#2A2A35"/><path d="M26.4,17.4 Q27.8,16.6 29.2,17.2 M34.8,17.2 Q36.2,16.6 37.6,17.4" stroke="#4A4050" stroke-width="0.8" fill="none" stroke-linecap="round" opacity="0.7"/><path d="M30.4,25 Q32,26.6 33.6,25" stroke="#B0654A" stroke-width="1" fill="none" stroke-linecap="round"/><ellipse cx="25" cy="23.6" rx="1.9" ry="1.15" fill="#F2937E" opacity="0.42"/><ellipse cx="39" cy="23.6" rx="1.9" ry="1.15" fill="#F2937E" opacity="0.42"/><rect x="16.8" y="45.8" width="10.5" height="7.8" rx="1" fill="#7A5546"/><rect x="18" y="46.8" width="8.1" height="5.8" rx="0.6" fill="#FBF7EE"/><path d="M45,55 L49.6,43.5" stroke="#B98A5A" stroke-width="1.1" stroke-linecap="round"/><path d="M48.2,47 Q47,41 50.4,38.4 Q52.4,41.6 49.8,46 Z" fill="#EDE4F2"/></g></svg>