<svg xmlns="http://www.w3.org/2000/svg" viewBox="0 0 64 96"><style>.wkazoe{animation:brkazoe 2.6s ease-in-out -5.92s infinite;transform-origin:50% 100%;transform-box:view-box}@keyframes brkazoe{0%,100%{transform:scaleY(1)}50%{transform:scaleY(1.018)}}</style><defs><linearGradient id="g_kazoe" x1="0" y1="0" x2="0" y2="1"><stop offset="0" stop-color="#43A064"/><stop offset="1" stop-color="#288449"/></linearGradient></defs><g class="wkazoe"><circle cx="32" cy="7" r="3.6" fill="#22202C"/><rect x="25.6" y="60" width="5.6" height="33" rx="2.7" fill="#454A63"/><rect x="32.8" y="60" width="5.6" height="33" rx="2.7" fill="#454A63"/><path d="M23.6,96 Q23.6,91.4 28.2,91.4 Q31.4,91.4 31.4,94 L31.4,96 Z" fill="#2E2A3B"/><path d="M32.6,96 L32.6,94 Q32.6,91.4 35.8,91.4 Q40.4,91.4 40.4,96 Z" fill="#2E2A3B"/><rect x="29.8" y="25" width="4.4" height="7" fill="#D7AB84"/><path d="M32,30.4 Q41.6,30.4 43.6,38 L45.4,57.5 Q46.2,65.5 38,65.5 L26,65.5 Q17.8,65.5 18.6,57.5 L20.4,38 Q22.4,30.4 32,30.4 Z" fill="url(#g_kazoe)"/><path d="M27.8,30.8 L32,35.2 L36.2,30.8 L33.8,29.6 L30.2,29.6 Z" fill="#FBF7EE"/><path d="M32,35.5 L32,64" stroke="#216C3C" stroke-width="0.9"/><circle cx="32" cy="40" r="0.8" fill="#216C3C"/><circle cx="32" cy="47" r="0.8" fill="#216C3C"/><circle cx="32" cy="54" r="0.8" fill="#216C3C"/><path d="M21.5,37 Q19.5,46 19,54" stroke="#288449" stroke-width="5" fill="none" stroke-linecap="round"/><circle cx="19" cy="55.5" r="2.4" fill="#EFBE93"/><path d="M42.5,37 Q48,45 40.5,49" stroke="#288449" stroke-width="5" fill="none" stroke-linecap="round"/><circle cx="39.5" cy="49.5" r="2.4" fill="#EFBE93"/><circle cx="32" cy="19" r="10.2" fill="#EFBE93"/><path d="M21.8,20 Q21.4,8.6 32,8.4 Q42.6,8.6 42.2,20 L42.2,15.5 Q42,12.6 37.5,12.8 L26.5,12.8 Q22,12.6 21.8,15.5 Z" fill="#262331"/><circle cx="27.8" cy="20.6" r="1.15" fill="#2A2A35"/><circle cx="36.2" cy="20.6" r="1.15" fill="#2A2A35"/><path d="M26.4,17.4 Q27.8,16.6 29.2,17.2 M34.8,17.2 Q36.2,16.6 37.6,17.4" stroke="#4A4050" stroke-width="0.8" fill="none" stroke-linecap="round" opacity="0.7"/><path d="M30.4,25 Q32,26.6 33.6,25" stroke="#B0654A" stroke-width="1" fill="none" stroke-linecap="round"/><ellipse cx="25" cy="23.6" rx="1.9" ry="1.15" fill="#F2937E" opacity="0.42"/><ellipse cx="39" cy="23.6" rx="1.9" ry="1.15" fill="#F2937E" opacity="0.42"/><rect x="34.2" y="43.4" width="12.4" height="9.6" rx="1.2" fill="#8A5A33"/><rect x="35.4" y="44.6" width="10" height="7.2" rx="0.6" fill="#F2E6D4"/><path d="M35.4,47.4 L45.4,47.4" stroke="#8A5A33" stroke-width="0.8"/><circle cx="37.2" cy="46" r="0.95" fill="#B93529"/><circle cx="40.4" cy="46" r="0.95" fill="#B93529"/><circle cx="43.6" cy="46" r="0.95" fill="#B93529"/><circle cx="37.2" cy="49.6" r="0.95" fill="#B98A5A"/><circle cx="40.4" cy="50.6" r="0.95" fill="#B98A5A"/><circle cx="43.6" cy="49.6" r="0.95" fill="#B98A5A"/></g></svg>