<svg xmlns="http://www.w3.org/2000/svg" viewBox="0 0 64 96"><style>.wmame{animation:brmame 3.2s ease-in-out -1.48s infinite;transform-origin:50% 100%;transform-box:view-box}@keyframes brmame{0%,100%{transform:scaleY(1)}50%{transform:scaleY(1.018)}}</style><defs><linearGradient id="g_mame" x1="0" y1="0" x2="0" y2="1"><stop offset="0" stop-color="#FFDB6E"/><stop offset="1" stop-color="#E0BD53"/></linearGradient></defs><g class="wmame"><path d="M20.8,16 Q20,30 24,32 L40,32 Q44,30 43.2,16 Q40,7 32,7 Q24,7 20.8,16 Z" fill="#9B5D28"/><rect x="25.6" y="60" width="5.6" height="33" rx="2.7" fill="#454A63"/><rect x="32.8" y="60" width="5.6" height="33" rx="2.7" fill="#454A63"/><path d="M23.6,96 Q23.6,91.4 28.2,91.4 Q31.4,91.4 31.4,94 L31.4,96 Z" fill="#2E2A3B"/><path d="M32.6,96 L32.6,94 Q32.6,91.4 35.8,91.4 Q40.4,91.4 40.4,96 Z" fill="#2E2A3B"/><rect x="29.8" y="25" width="4.4" height="7" fill="#D8A982"/><path d="M32,30.4 Q41.6,30.4 43.6,38 L45.4,57.5 Q46.2,65.5 38,65.5 L26,65.5 Q17.8,65.5 18.6,57.5 L20.4,38 Q22.4,30.4 32,30.4 Z" fill="url(#g_mame)"/><path d="M27.5,31 Q32,33.6 36.5,31" stroke="#B89B44" stroke-width="1.6" fill="none" stroke-linecap="round"/><path d="M21.5,37 Q19.5,46 19,54" stroke="#E0BD53" stroke-width="5" fill="none" stroke-linecap="round"/><circle cx="19" cy="55.5" r="2.4" fill="#F0BC90"/><path d="M42.5,37 Q44.5,46 45,54" stroke="#E0BD53" stroke-width="5" fill="none" stroke-linecap="round"/><circle cx="45" cy="55.5" r="2.4" fill="#F0BC90"/><circle cx="32" cy="19" r="10.2" fill="#F0BC90"/><path d="M21.8,20 Q21.4,8.6 32,8.4 Q42.6,8.6 42.2,20 L42.2,15.5 Q42,12.6 37.5,12.8 L26.5,12.8 Q22,12.6 21.8,15.5 Z" fill="#B06A2E"/><circle cx="27.8" cy="20.6" r="1.15" fill="#2A2A35"/><circle cx="36.2" cy="20.6" r="1.15" fill="#2A2A35"/><path d="M26.4,17.4 Q27.8,16.6 29.2,17.2 M34.8,17.2 Q36.2,16.6 37.6,17.4" stroke="#4A4050" stroke-width="0.8" fill="none" stroke-linecap="round" opacity="0.7"/><path d="M30.4,25 Q32,26.6 33.6,25" stroke="#B0654A" stroke-width="1" fill="none" stroke-linecap="round"/><ellipse cx="25" cy="23.6" rx="1.9" ry="1.15" fill="#F2937E" opacity="0.42"/><ellipse cx="39" cy="23.6" rx="1.9" ry="1.15" fill="#F2937E" opacity="0.42"/><path d="M22.6,14.5 Q32,5 41.4,14.5" stroke="#3B3B4F" stroke-width="2.4" fill="none"/><rect x="20.2" y="15" width="4" height="6.4" rx="2" fill="#3B3B4F"/><rect x="39.8" y="15" width="4" height="6.4" rx="2" fill="#3B3B4F"/><path d="M22.2,21.2 Q23,26.5 28,27.2" stroke="#3B3B4F" stroke-width="1.3" fill="none"/><circle cx="28.8" cy="27.3" r="1.3" fill="#3B3B4F"/></g></svg>