<svg xmlns="http://www.w3.org/2000/svg" viewBox="0 0 64 96"><style>.wmatome{animation:brmatome 2.6s ease-in-out -0.37s infinite;transform-origin:50% 100%;transform-box:view-box}@keyframes brmatome{0%,100%{transform:scaleY(1)}50%{transform:scaleY(1.018)}}</style><defs><linearGradient id="g_matome" x1="0" y1="0" x2="0" y2="1"><stop offset="0" stop-color="#DDAD36"/><stop offset="1" stop-color="#BF901C"/></linearGradient></defs><g class="wmatome"><circle cx="32" cy="7" r="3.6" fill="#636371"/><rect x="25.6" y="60" width="5.6" height="33" rx="2.7" fill="#4E4A5A"/><rect x="32.8" y="60" width="5.6" height="33" rx="2.7" fill="#4E4A5A"/><path d="M23.6,96 Q23.6,91.4 28.2,91.4 Q31.4,91.4 31.4,94 L31.4,96 Z" fill="#2E2A3B"/><path d="M32.6,96 L32.6,94 Q32.6,91.4 35.8,91.4 Q40.4,91.4 40.4,96 Z" fill="#2E2A3B"/><rect x="29.8" y="25" width="4.4" height="7" fill="#D7AB84"/><path d="M32,30.4 Q41.6,30.4 43.6,38 L45.4,57.5 Q46.2,65.5 38,65.5 L26,65.5 Q17.8,65.5 18.6,57.5 L20.4,38 Q22.4,30.4 32,30.4 Z" fill="url(#g_matome)"/><path d="M27.8,30.8 L32,35.2 L36.2,30.8 L33.8,29.6 L30.2,29.6 Z" fill="#FBF7EE"/><path d="M32,35.5 L32,64" stroke="#9C7617" stroke-width="0.9"/><circle cx="32" cy="40" r="0.8" fill="#9C7617"/><circle cx="32" cy="47" r="0.8" fill="#9C7617"/><circle cx="32" cy="54" r="0.8" fill="#9C7617"/><path d="M21.5,37 Q19.5,46 19,54" stroke="#BF901C" stroke-width="5" fill="none" stroke-linecap="round"/><circle cx="19" cy="55.5" r="2.4" fill="#EFBE93"/><path d="M42.5,37 Q48,45 40.5,49" stroke="#BF901C" stroke-width="5" fill="none" stroke-linecap="round"/><circle cx="39.5" cy="49.5" r="2.4" fill="#EFBE93"/><circle cx="32" cy="19" r="10.2" fill="#EFBE93"/><path d="M21.8,20 Q21.4,8.6 32,8.4 Q42.6,8.6 42.2,20 L42.2,15.5 Q42,12.6 37.5,12.8 L26.5,12.8 Q22,12.6 21.8,15.5 Z" fill="#6E6E7E"/><circle cx="27.8" cy="20.6" r="1.15" fill="#2A2A35"/><circle cx="36.2" cy="20.6" r="1.15" fill="#2A2A35"/><path d="M26.4,17.4 Q27.8,16.6 29.2,17.2 M34.8,17.2 Q36.2,16.6 37.6,17.4" stroke="#4A4050" stroke-width="0.8" fill="none" stroke-linecap="round" opacity="0.7"/><path d="M30.4,25 Q32,26.6 33.6,25" stroke="#B0654A" stroke-width="1" fill="none" stroke-linecap="round"/><ellipse cx="25" cy="23.6" rx="1.9" ry="1.15" fill="#F2937E" opacity="0.42"/><ellipse cx="39" cy="23.6" rx="1.9" ry="1.15" fill="#F2937E" opacity="0.42"/><rect x="34.6" y="42" width="10" height="13.5" rx="1.4" fill="#B98A5A"/><rect x="36" y="44.6" width="7.2" height="9.4" rx="0.8" fill="#FBF7EE"/><rect x="37.8" y="41" width="3.6" height="2.8" rx="1" fill="#6E6E7E"/><path d="M37.2,47 L42,47 M37.2,49.4 L42,49.4 M37.2,51.8 L40.4,51.8" stroke="#A9B2C4" stroke-width="0.8"/></g></svg>