<svg xmlns="http://www.w3.org/2000/svg" viewBox="0 0 64 96"><style>.wmekiki{animation:brmekiki 2.8s ease-in-out -2.59s infinite;transform-origin:50% 100%;transform-box:view-box}@keyframes brmekiki{0%,100%{transform:scaleY(1)}50%{transform:scaleY(1.018)}}</style><defs><linearGradient id="g_mekiki" x1="0" y1="0" x2="0" y2="1"><stop offset="0" stop-color="#88C6F9"/><stop offset="1" stop-color="#6CA9DA"/></linearGradient></defs><g class="wmekiki"><rect x="25.6" y="60" width="5.6" height="33" rx="2.7" fill="#454A63"/><rect x="32.8" y="60" width="5.6" height="33" rx="2.7" fill="#454A63"/><path d="M23.6,96 Q23.6,91.4 28.2,91.4 Q31.4,91.4 31.4,94 L31.4,96 Z" fill="#2E2A3B"/><path d="M32.6,96 L32.6,94 Q32.6,91.4 35.8,91.4 Q40.4,91.4 40.4,96 Z" fill="#2E2A3B"/><rect x="29.8" y="25" width="4.4" height="7" fill="#D7AB84"/><path d="M32,30.4 Q41.6,30.4 43.6,38 L45.4,57.5 Q46.2,65.5 38,65.5 L26,65.5 Q17.8,65.5 18.6,57.5 L20.4,38 Q22.4,30.4 32,30.4 Z" fill="url(#g_mekiki)"/><path d="M27.8,30.8 L32,35.2 L36.2,30.8 L33.8,29.6 L30.2,29.6 Z" fill="#FBF7EE"/><path d="M32,35.5 L32,64" stroke="#598AB3" stroke-width="0.9"/><circle cx="32" cy="40" r="0.8" fill="#598AB3"/><circle cx="32" cy="47" r="0.8" fill="#598AB3"/><circle cx="32" cy="54" r="0.8" fill="#598AB3"/><path d="M21.5,37 Q19.5,46 19,54" stroke="#6CA9DA" stroke-width="5" fill="none" stroke-linecap="round"/><circle cx="19" cy="55.5" r="2.4" fill="#EFBE93"/><path d="M42.5,37 Q48,45 40.5,49" stroke="#6CA9DA" stroke-width="5" fill="none" stroke-linecap="round"/><circle cx="39.5" cy="49.5" r="2.4" fill="#EFBE93"/><circle cx="32" cy="19" r="10.2" fill="#EFBE93"/><path d="M21.8,20 Q21.4,8.6 32,8.4 Q42.6,8.6 42.2,20 Q41.6,13 33.8,12.4 L32,9.6 L30.2,12.4 Q22.4,13 21.8,20 Z" fill="#33424F"/><circle cx="27.8" cy="20.6" r="1.15" fill="#2A2A35"/><circle cx="36.2" cy="20.6" r="1.15" fill="#2A2A35"/><path d="M26.4,17.4 Q27.8,16.6 29.2,17.2 M34.8,17.2 Q36.2,16.6 37.6,17.4" stroke="#4A4050" stroke-width="0.8" fill="none" stroke-linecap="round" opacity="0.7"/><path d="M30.4,25 Q32,26.6 33.6,25" stroke="#B0654A" stroke-width="1" fill="none" stroke-linecap="round"/><ellipse cx="25" cy="23.6" rx="1.9" ry="1.15" fill="#F2937E" opacity="0.42"/><ellipse cx="39" cy="23.6" rx="1.9" ry="1.15" fill="#F2937E" opacity="0.42"/><circle cx="42" cy="43.6" r="4.4" fill="#CFE8F8" opacity="0.85"/><circle cx="42" cy="43.6" r="4.4" fill="none" stroke="#3B3B4F" stroke-width="1.7"/><path d="M45,47 L48.4,52" stroke="#3B3B4F" stroke-width="2.2" stroke-linecap="round"/><path d="M40.2,42 Q41.4,40.6 43,41.2" stroke="#FFFFFF" stroke-width="1" fill="none" stroke-linecap="round"/></g></svg>