<svg xmlns="http://www.w3.org/2000/svg" viewBox="0 0 64 96"><style>.wmetsuke{animation:brmetsuke 2.6s ease-in-out -7.77s infinite;transform-origin:50% 100%;transform-box:view-box}@keyframes brmetsuke{0%,100%{transform:scaleY(1)}50%{transform:scaleY(1.018)}}</style><defs><linearGradient id="g_metsuke" x1="0" y1="0" x2="0" y2="1"><stop offset="0" stop-color="#7961AC"/><stop offset="1" stop-color="#5D468F"/></linearGradient></defs><g class="wmetsuke"><path d="M20.5,16 Q19.6,40 24,42 L40,42 Q44.4,40 43.5,16 Q40,7 32,7 Q24,7 20.5,16 Z" fill="#272038"/><rect x="25.6" y="60" width="5.6" height="33" rx="2.7" fill="#3A3145"/><rect x="32.8" y="60" width="5.6" height="33" rx="2.7" fill="#3A3145"/><path d="M23.6,96 Q23.6,91.4 28.2,91.4 Q31.4,91.4 31.4,94 L31.4,96 Z" fill="#2E2A3B"/><path d="M32.6,96 L32.6,94 Q32.6,91.4 35.8,91.4 Q40.4,91.4 40.4,96 Z" fill="#2E2A3B"/><rect x="29.8" y="25" width="4.4" height="7" fill="#D5C3AD"/><path d="M32,30.4 Q41.6,30.4 43.6,38 L45.4,57.5 Q46.2,65.5 38,65.5 L26,65.5 Q17.8,65.5 18.6,57.5 L20.4,38 Q22.4,30.4 32,30.4 Z" fill="url(#g_metsuke)"/><path d="M26.5,31.5 Q32,34.5 37.5,31.5" stroke="#4C3975" stroke-width="2.2" fill="none" stroke-linecap="round"/><path d="M22,58 Q32,60.5 42,58" stroke="#4C3975" stroke-width="1.4" fill="none" opacity="0.55"/><path d="M21.5,37 Q19.5,46 19,54" stroke="#5D468F" stroke-width="5" fill="none" stroke-linecap="round"/><circle cx="19" cy="55.5" r="2.4" fill="#EDD9C0"/><path d="M42.5,37 Q44.5,46 45,54" stroke="#5D468F" stroke-width="5" fill="none" stroke-linecap="round"/><circle cx="45" cy="55.5" r="2.4" fill="#EDD9C0"/><circle cx="32" cy="19" r="10.2" fill="#EDD9C0"/><path d="M21.8,20 Q21.4,8.6 32,8.4 Q42.6,8.6 42.2,20 Q41.5,14 39,15.5 Q38,12.5 34.5,14.5 Q32.5,11.5 29.5,14.5 Q26.5,12.5 25,15.5 Q22.5,14 21.8,20 Z" fill="#2C2440"/><circle cx="27.8" cy="20.6" r="1.15" fill="#2A2A35"/><circle cx="36.2" cy="20.6" r="1.15" fill="#2A2A35"/><path d="M26.4,17.4 Q27.8,16.6 29.2,17.2 M34.8,17.2 Q36.2,16.6 37.6,17.4" stroke="#4A4050" stroke-width="0.8" fill="none" stroke-linecap="round" opacity="0.7"/><path d="M30.4,25 Q32,26.6 33.6,25" stroke="#B0654A" stroke-width="1" fill="none" stroke-linecap="round"/><ellipse cx="25" cy="23.6" rx="1.9" ry="1.15" fill="#F2937E" opacity="0.42"/><ellipse cx="39" cy="23.6" rx="1.9" ry="1.15" fill="#F2937E" opacity="0.42"/><ellipse cx="32" cy="43" rx="6" ry="3.9" fill="#FBF7EE"/><circle cx="32" cy="43" r="2.4" fill="#7B5FB5"/><circle cx="32" cy="43" r="1.1" fill="#2C2440"/><ellipse cx="32" cy="43" rx="6" ry="3.9" fill="none" stroke="#4E3B78" stroke-width="0.9"/><path d="M45,57 L45,60" stroke="#5A4A3A" stroke-width="1" stroke-linecap="round"/><ellipse cx="45" cy="66" rx="3.6" ry="5.4" fill="#F2E6C8"/><path d="M42.2,63 Q45,64 47.8,63 M42,66 L48,66 M42.2,69 Q45,68 47.8,69" stroke="#D9C79A" stroke-width="0.7" fill="none"/><rect x="43.4" y="59.8" width="3.2" height="1.6" rx="0.7" fill="#5A4A3A"/><rect x="43.4" y="70.6" width="3.2" height="1.6" rx="0.7" fill="#5A4A3A"/><circle cx="45" cy="66" r="1.2" fill="#B93529"/></g></svg>