<svg xmlns="http://www.w3.org/2000/svg" viewBox="0 0 64 96"><style>.wowner{animation:browner 2.8s ease-in-out -0.40s infinite;transform-origin:50% 100%;transform-box:view-box}@keyframes browner{0%,100%{transform:scaleY(1)}50%{transform:scaleY(1.016)}}</style><defs><linearGradient id="g_owner" x1="0" y1="0" x2="0" y2="1"><stop offset="0" stop-color="#F4EFDE"/><stop offset="1" stop-color="#DDD5BC"/></linearGradient></defs><g class="wowner"><rect x="25.4" y="60" width="5.8" height="33" rx="2.8" fill="#4A4E66"/><rect x="32.8" y="60" width="5.8" height="33" rx="2.8" fill="#4A4E66"/><path d="M23.4,96 Q23.4,91.2 28.2,91.2 Q31.4,91.2 31.4,94 L31.4,96 Z" fill="#7A5A3C"/><path d="M32.6,96 L32.6,94 Q32.6,91.2 35.8,91.2 Q40.6,91.2 40.6,96 Z" fill="#7A5A3C"/><rect x="29.8" y="25" width="4.4" height="7" fill="#E8C09A"/><path d="M32,30.2 Q41.8,30.2 43.8,38 L45.4,57.5 Q46.2,65.5 38,65.5 L26,65.5 Q17.8,65.5 18.6,57.5 L20.2,38 Q22.2,30.2 32,30.2 Z" fill="#1A1C2C"/><path d="M26.6,30.8 L24,38 L23,58 Q22.8,64.6 27.4,64.8 L28.6,64.8 L28.6,32.2 Q27.4,31.3 26.6,30.8 Z" fill="url(#g_owner)"/><path d="M37.4,30.8 L40,38 L41,58 Q41.2,64.6 36.6,64.8 L35.4,64.8 L35.4,32.2 Q36.6,31.3 37.4,30.8 Z" fill="url(#g_owner)"/><path d="M28.6,33 L28.6,64.8 M35.4,33 L35.4,64.8" stroke="#C8BFA2" stroke-width="0.8" fill="none"/><circle cx="32" cy="40" r="0.9" fill="#F4EFDE" opacity="0.85"/><circle cx="32" cy="47" r="0.9" fill="#F4EFDE" opacity="0.85"/><path d="M21.6,37 Q19.4,45 19,53" stroke="#E8E0C8" stroke-width="5" fill="none" stroke-linecap="round"/><circle cx="19" cy="55" r="2.5" fill="#E8C09A"/><rect x="14.6" y="49.4" width="8.8" height="12.6" rx="2" fill="#2A2E44"/><rect x="15.6" y="50.4" width="6.8" height="10.6" rx="1.4" fill="#8FB2EE"/><rect x="17.6" y="52.2" width="2.8" height="2.8" rx="0.6" fill="#FFC825"/><rect x="17.2" y="56" width="3.6" height="0.9" rx="0.45" fill="#F4EFDE" opacity="0.9"/><rect x="17.2" y="57.8" width="2.6" height="0.9" rx="0.45" fill="#F4EFDE" opacity="0.6"/><path d="M42.4,37 Q44.6,45 45,52" stroke="#E8E0C8" stroke-width="5" fill="none" stroke-linecap="round"/><circle cx="45" cy="54" r="2.5" fill="#E8C09A"/><path d="M41.6,52.8 L48.4,52.8 L47.6,60.4 Q47.4,61.6 46.2,61.6 L43.8,61.6 Q42.6,61.6 42.4,60.4 Z" fill="#B3541E"/><rect x="41.6" y="52.8" width="6.8" height="1.6" fill="#8A3E12"/><path d="M48.4,54.4 Q51,55.4 48.1,57.6" stroke="#B3541E" stroke-width="1.3" fill="none"/><path d="M44,50.6 C43.4,49.2 44.6,48.6 44,47.2 M46,50.6 C45.4,49.2 46.6,48.6 46,47.2" stroke="#DFE8FF" stroke-width="1" fill="none" stroke-linecap="round" opacity="0.6"/><circle cx="32" cy="19" r="10.2" fill="#E8C09A"/><path d="M21.8,18 Q21.6,7.8 32,7.6 Q42.4,7.8 42.2,18 L42.2,13.6 Q40.2,10.2 32,10.2 Q23.8,10.2 21.8,13.6 Z" fill="#2E2620"/><path d="M22,15.4 Q23.4,18.4 23,21 L21.9,20.2 Z" fill="#2E2620"/><path d="M42,15.4 Q40.6,18.4 41,21 L42.1,20.2 Z" fill="#2E2620"/><rect x="24.6" y="18.4" width="6.2" height="5" rx="2.4" fill="none" stroke="#3A3A44" stroke-width="1.1"/><rect x="33.2" y="18.4" width="6.2" height="5" rx="2.4" fill="none" stroke="#3A3A44" stroke-width="1.1"/><path d="M30.8,20.4 L33.2,20.4" stroke="#3A3A44" stroke-width="1.1"/><circle cx="27.7" cy="20.9" r="1.1" fill="#2A2A35"/><circle cx="36.3" cy="20.9" r="1.1" fill="#2A2A35"/><path d="M26.2,16.6 Q27.7,15.8 29.2,16.4 M34.8,16.4 Q36.3,15.8 37.8,16.6" stroke="#3A3128" stroke-width="0.9" fill="none" stroke-linecap="round"/><path d="M29.8,25.2 Q32,27.2 34.2,25.2" stroke="#B0654A" stroke-width="1.1" fill="none" stroke-linecap="round"/><ellipse cx="24.8" cy="23.6" rx="1.9" ry="1.1" fill="#F2937E" opacity="0.4"/><ellipse cx="39.2" cy="23.6" rx="1.9" ry="1.1" fill="#F2937E" opacity="0.4"/><path d="M32,31 L34,33.6 L32,36.2 L30,33.6 Z" fill="#F4EFDE"/><path d="M32,36.2 L33,37.6 L32,42 L31,37.6 Z" fill="#C8BFA2"/></g></svg>
