<svg xmlns="http://www.w3.org/2000/svg" viewBox="0 0 64 96"><style>.wrei{animation:brrei 2.4s ease-in-out -0.00s infinite;transform-origin:50% 100%;transform-box:view-box}@keyframes brrei{0%,100%{transform:scaleY(1)}50%{transform:scaleY(1.018)}}</style><defs><linearGradient id="g_rei" x1="0" y1="0" x2="0" y2="1"><stop offset="0" stop-color="#EBB136"/><stop offset="1" stop-color="#CD941C"/></linearGradient></defs><g class="wrei"><rect x="25.6" y="60" width="5.6" height="33" rx="2.7" fill="#3C4059"/><rect x="32.8" y="60" width="5.6" height="33" rx="2.7" fill="#3C4059"/><path d="M23.6,96 Q23.6,91.4 28.2,91.4 Q31.4,91.4 31.4,94 L31.4,96 Z" fill="#2E2A3B"/><path d="M32.6,96 L32.6,94 Q32.6,91.4 35.8,91.4 Q40.4,91.4 40.4,96 Z" fill="#2E2A3B"/><rect x="29.8" y="25" width="4.4" height="7" fill="#DCB18C"/><path d="M32,30.4 Q41.6,30.4 43.6,38 L45.4,57.5 Q46.2,65.5 38,65.5 L26,65.5 Q17.8,65.5 18.6,57.5 L20.4,38 Q22.4,30.4 32,30.4 Z" fill="url(#g_rei)"/><path d="M29,31 L32,39 L35,31 Q32,30.2 29,31 Z" fill="#FBF7EE"/><path d="M29.2,30.9 L32,38.6 L29.2,41 L26.2,32.6 Z" fill="#A87917"/><path d="M34.8,30.9 L32,38.6 L34.8,41 L37.8,32.6 Z" fill="#A87917"/><circle cx="32" cy="46" r="0.9" fill="#A87917"/><circle cx="32" cy="52" r="0.9" fill="#A87917"/><path d="M21.5,37 Q19.5,46 19,54" stroke="#CD941C" stroke-width="5" fill="none" stroke-linecap="round"/><circle cx="19" cy="55.5" r="2.4" fill="#F4C59C"/><path d="M42.5,37 Q44.5,46 45,54" stroke="#CD941C" stroke-width="5" fill="none" stroke-linecap="round"/><circle cx="45" cy="55.5" r="2.4" fill="#F4C59C"/><circle cx="32" cy="19" r="10.2" fill="#F4C59C"/><path d="M21.8,19 Q21.4,8.2 32,8 Q42.6,8.2 42.2,19 L42.2,14 Q40,10.8 32,10.8 Q24,10.8 21.8,14 Z" fill="#3A3145"/><circle cx="27.8" cy="20.6" r="1.15" fill="#2A2A35"/><circle cx="36.2" cy="20.6" r="1.15" fill="#2A2A35"/><path d="M26.4,17.4 Q27.8,16.6 29.2,17.2 M34.8,17.2 Q36.2,16.6 37.6,17.4" stroke="#4A4050" stroke-width="0.8" fill="none" stroke-linecap="round" opacity="0.7"/><path d="M30.4,25 Q32,26.6 33.6,25" stroke="#B0654A" stroke-width="1" fill="none" stroke-linecap="round"/><ellipse cx="25" cy="23.6" rx="1.9" ry="1.15" fill="#F2937E" opacity="0.42"/><ellipse cx="39" cy="23.6" rx="1.9" ry="1.15" fill="#F2937E" opacity="0.42"/><path d="M25.2,10.6 L26.2,3.8 L29.6,7.8 L32,3.2 L34.4,7.8 L37.8,3.8 L38.8,10.6 Q32,8.6 25.2,10.6 Z" fill="#FFD75E"/><path d="M25.2,10.6 Q32,8.6 38.8,10.6" stroke="#D9A420" stroke-width="1" fill="none"/><path d="M32,38.5 L34.3,42 L32,52 L29.7,42 Z" fill="#E64539"/></g></svg>