<svg xmlns="http://www.w3.org/2000/svg" viewBox="0 0 64 96"><style>.wshirabe{animation:brshirabe 2.8s ease-in-out -4.44s infinite;transform-origin:50% 100%;transform-box:view-box}@keyframes brshirabe{0%,100%{transform:scaleY(1)}50%{transform:scaleY(1.018)}}</style><defs><linearGradient id="g_shirabe" x1="0" y1="0" x2="0" y2="1"><stop offset="0" stop-color="#C0493E"/><stop offset="1" stop-color="#A32F24"/></linearGradient></defs><g class="wshirabe"><rect x="25.6" y="60" width="5.6" height="33" rx="2.7" fill="#33424F"/><rect x="32.8" y="60" width="5.6" height="33" rx="2.7" fill="#33424F"/><path d="M23.6,96 Q23.6,91.4 28.2,91.4 Q31.4,91.4 31.4,94 L31.4,96 Z" fill="#2E2A3B"/><path d="M32.6,96 L32.6,94 Q32.6,91.4 35.8,91.4 Q40.4,91.4 40.4,96 Z" fill="#2E2A3B"/><rect x="29.8" y="25" width="4.4" height="7" fill="#B57A48"/><path d="M32,30.4 Q41.6,30.4 43.6,38 L45.4,57.5 Q46.2,65.5 38,65.5 L26,65.5 Q17.8,65.5 18.6,57.5 L20.4,38 Q22.4,30.4 32,30.4 Z" fill="url(#g_shirabe)"/><path d="M22.5,33 Q22.5,27 32,27 Q41.5,27 41.5,33 Q37,30.2 32,30.2 Q27,30.2 22.5,33 Z" fill="#85261E"/><path d="M25.5,56 L38.5,56 L36.8,63.5 L27.2,63.5 Z" fill="#85261E"/><path d="M29.5,31.5 L29,37" stroke="#FBF7EE" stroke-width="1" stroke-linecap="round"/><path d="M34.5,31.5 L35,37" stroke="#FBF7EE" stroke-width="1" stroke-linecap="round"/><path d="M21.5,37 Q16,45 23.5,49" stroke="#A32F24" stroke-width="5" fill="none" stroke-linecap="round"/><circle cx="24.5" cy="49.5" r="2.4" fill="#C98850"/><path d="M42.5,37 Q48,45 40.5,49" stroke="#A32F24" stroke-width="5" fill="none" stroke-linecap="round"/><circle cx="39.5" cy="49.5" r="2.4" fill="#C98850"/><circle cx="32" cy="19" r="10.2" fill="#C98850"/><path d="M22.5,15.5 Q23,9.6 32,9.4 Q41,9.6 41.5,15.5 Q37,12.6 32,12.6 Q27,12.6 22.5,15.5 Z" fill="#3F3230"/><circle cx="25" cy="11.5" r="3.1" fill="#3F3230"/><circle cx="32" cy="9.4" r="3.4" fill="#3F3230"/><circle cx="39" cy="11.5" r="3.1" fill="#3F3230"/><circle cx="27.8" cy="20.6" r="1.15" fill="#2A2A35"/><circle cx="36.2" cy="20.6" r="1.15" fill="#2A2A35"/><path d="M26.4,17.4 Q27.8,16.6 29.2,17.2 M34.8,17.2 Q36.2,16.6 37.6,17.4" stroke="#4A4050" stroke-width="0.8" fill="none" stroke-linecap="round" opacity="0.7"/><path d="M30.4,25 Q32,26.6 33.6,25" stroke="#B0654A" stroke-width="1" fill="none" stroke-linecap="round"/><ellipse cx="25" cy="23.6" rx="1.9" ry="1.15" fill="#F2937E" opacity="0.42"/><ellipse cx="39" cy="23.6" rx="1.9" ry="1.15" fill="#F2937E" opacity="0.42"/><rect x="25.6" y="43.6" width="5.6" height="8.4" rx="2.6" fill="#3B3B4F"/><rect x="32.8" y="43.6" width="5.6" height="8.4" rx="2.6" fill="#3B3B4F"/><rect x="30.4" y="45.6" width="3.2" height="3" fill="#3B3B4F"/><circle cx="28.4" cy="45.6" r="1.5" fill="#9FD1F5"/><circle cx="35.6" cy="45.6" r="1.5" fill="#9FD1F5"/></g></svg>