<svg xmlns="http://www.w3.org/2000/svg" viewBox="0 0 64 96"><style>.wtsukuru{animation:brtsukuru 2.4s ease-in-out -1.85s infinite;transform-origin:50% 100%;transform-box:view-box}@keyframes brtsukuru{0%,100%{transform:scaleY(1)}50%{transform:scaleY(1.018)}}</style><defs><linearGradient id="g_tsukuru" x1="0" y1="0" x2="0" y2="1"><stop offset="0" stop-color="#4492DA"/><stop offset="1" stop-color="#2976BC"/></linearGradient></defs><g class="wtsukuru"><rect x="25.6" y="60" width="5.6" height="33" rx="2.7" fill="#3C4059"/><rect x="32.8" y="60" width="5.6" height="33" rx="2.7" fill="#3C4059"/><path d="M23.6,96 Q23.6,91.4 28.2,91.4 Q31.4,91.4 31.4,94 L31.4,96 Z" fill="#2E2A3B"/><path d="M32.6,96 L32.6,94 Q32.6,91.4 35.8,91.4 Q40.4,91.4 40.4,96 Z" fill="#2E2A3B"/><rect x="29.8" y="25" width="4.4" height="7" fill="#D2A27A"/><path d="M32,30.4 Q41.6,30.4 43.6,38 L45.4,57.5 Q46.2,65.5 38,65.5 L26,65.5 Q17.8,65.5 18.6,57.5 L20.4,38 Q22.4,30.4 32,30.4 Z" fill="url(#g_tsukuru)"/><path d="M22.5,33 Q22.5,27 32,27 Q41.5,27 41.5,33 Q37,30.2 32,30.2 Q27,30.2 22.5,33 Z" fill="#22609A"/><path d="M25.5,56 L38.5,56 L36.8,63.5 L27.2,63.5 Z" fill="#22609A"/><path d="M29.5,31.5 L29,37" stroke="#FBF7EE" stroke-width="1" stroke-linecap="round"/><path d="M34.5,31.5 L35,37" stroke="#FBF7EE" stroke-width="1" stroke-linecap="round"/><path d="M21.5,37 Q19.5,46 19,54" stroke="#2976BC" stroke-width="5" fill="none" stroke-linecap="round"/><circle cx="19" cy="55.5" r="2.4" fill="#E9B487"/><path d="M42.5,37 Q48,45 40.5,49" stroke="#2976BC" stroke-width="5" fill="none" stroke-linecap="round"/><circle cx="39.5" cy="49.5" r="2.4" fill="#E9B487"/><circle cx="32" cy="19" r="10.2" fill="#E9B487"/><path d="M21.8,20 Q21.4,8.6 32,8.4 Q42.6,8.6 42.2,20 Q41.5,12.5 34.5,12 Q26.5,14.5 23.8,18.6 Q22.3,16.5 21.8,20 Z" fill="#2A2633"/><circle cx="27.8" cy="20.6" r="1.15" fill="#2A2A35"/><circle cx="36.2" cy="20.6" r="1.15" fill="#2A2A35"/><path d="M26.4,17.4 Q27.8,16.6 29.2,17.2 M34.8,17.2 Q36.2,16.6 37.6,17.4" stroke="#4A4050" stroke-width="0.8" fill="none" stroke-linecap="round" opacity="0.7"/><path d="M30.4,25 Q32,26.6 33.6,25" stroke="#B0654A" stroke-width="1" fill="none" stroke-linecap="round"/><ellipse cx="25" cy="23.6" rx="1.9" ry="1.15" fill="#F2937E" opacity="0.42"/><ellipse cx="39" cy="23.6" rx="1.9" ry="1.15" fill="#F2937E" opacity="0.42"/><path d="M36.4,56.5 L44,42.5" stroke="#B98A5A" stroke-width="2.4" stroke-linecap="round"/><rect x="39.4" y="37.6" width="10" height="5.6" rx="1.2" fill="#7A8194" transform="rotate(-24 44.4 40.4)"/></g></svg>