<svg xmlns="http://www.w3.org/2000/svg" viewBox="0 0 64 96"><style>.wwataru{animation:brwataru 3.2s ease-in-out -5.18s infinite;transform-origin:50% 100%;transform-box:view-box}@keyframes brwataru{0%,100%{transform:scaleY(1)}50%{transform:scaleY(1.018)}}</style><defs><linearGradient id="g_wataru" x1="0" y1="0" x2="0" y2="1"><stop offset="0" stop-color="#EA7E6F"/><stop offset="1" stop-color="#CC6354"/></linearGradient></defs><g class="wwataru"><rect x="25.6" y="60" width="5.6" height="33" rx="2.7" fill="#3C4059"/><rect x="32.8" y="60" width="5.6" height="33" rx="2.7" fill="#3C4059"/><path d="M23.6,96 Q23.6,91.4 28.2,91.4 Q31.4,91.4 31.4,94 L31.4,96 Z" fill="#2E2A3B"/><path d="M32.6,96 L32.6,94 Q32.6,91.4 35.8,91.4 Q40.4,91.4 40.4,96 Z" fill="#2E2A3B"/><rect x="29.8" y="25" width="4.4" height="7" fill="#D19E73"/><path d="M32,30.4 Q41.6,30.4 43.6,38 L45.4,57.5 Q46.2,65.5 38,65.5 L26,65.5 Q17.8,65.5 18.6,57.5 L20.4,38 Q22.4,30.4 32,30.4 Z" fill="url(#g_wataru)"/><path d="M27.5,31 Q32,33.6 36.5,31" stroke="#A75144" stroke-width="1.6" fill="none" stroke-linecap="round"/><path d="M21.5,37 Q16,45 23.5,49" stroke="#CC6354" stroke-width="5" fill="none" stroke-linecap="round"/><circle cx="24.5" cy="49.5" r="2.4" fill="#E8B080"/><path d="M42.5,37 Q44.5,46 45,54" stroke="#CC6354" stroke-width="5" fill="none" stroke-linecap="round"/><circle cx="45" cy="55.5" r="2.4" fill="#E8B080"/><circle cx="32" cy="19" r="10.2" fill="#E8B080"/><path d="M21.8,19 Q21.4,8.2 32,8 Q42.6,8.2 42.2,19 L42.2,14 Q40,10.8 32,10.8 Q24,10.8 21.8,14 Z" fill="#8A5A33"/><circle cx="27.8" cy="20.6" r="1.15" fill="#2A2A35"/><circle cx="36.2" cy="20.6" r="1.15" fill="#2A2A35"/><path d="M26.4,17.4 Q27.8,16.6 29.2,17.2 M34.8,17.2 Q36.2,16.6 37.6,17.4" stroke="#4A4050" stroke-width="0.8" fill="none" stroke-linecap="round" opacity="0.7"/><path d="M30.4,25 Q32,26.6 33.6,25" stroke="#B0654A" stroke-width="1" fill="none" stroke-linecap="round"/><ellipse cx="25" cy="23.6" rx="1.9" ry="1.15" fill="#F2937E" opacity="0.42"/><ellipse cx="39" cy="23.6" rx="1.9" ry="1.15" fill="#F2937E" opacity="0.42"/><circle cx="22.8" cy="49.2" r="5.6" fill="#8FCBF2"/><path d="M19.4,46.4 Q21.4,44.4 23.8,46 Q22.6,48.4 20,48.2 Z" fill="#38B764"/><path d="M24.6,50.4 Q27.4,49.6 27.6,52 Q25.4,54 23.6,52.6 Z" fill="#38B764"/><path d="M20,52.6 Q21.4,52 22,53.6 Q20.8,54.6 19.8,53.8 Z" fill="#38B764"/><circle cx="22.8" cy="49.2" r="5.6" fill="none" stroke="#5A94BD" stroke-width="0.8"/></g></svg>