<svg xmlns="http://www.w3.org/2000/svg" viewBox="0 0 64 96"><style>.wyomi{animation:bryomi 3.0s ease-in-out -4.81s infinite;transform-origin:50% 100%;transform-box:view-box}@keyframes bryomi{0%,100%{transform:scaleY(1)}50%{transform:scaleY(1.018)}}</style><defs><linearGradient id="g_yomi" x1="0" y1="0" x2="0" y2="1"><stop offset="0" stop-color="#E8584D"/><stop offset="1" stop-color="#CA3D32"/></linearGradient></defs><g class="wyomi"><path d="M20.5,16 Q19.6,40 24,42 L40,42 Q44.4,40 43.5,16 Q40,7 32,7 Q24,7 20.5,16 Z" fill="#282534"/><rect x="25.6" y="60" width="5.6" height="33" rx="2.7" fill="#454A63"/><rect x="32.8" y="60" width="5.6" height="33" rx="2.7" fill="#454A63"/><path d="M23.6,96 Q23.6,91.4 28.2,91.4 Q31.4,91.4 31.4,94 L31.4,96 Z" fill="#2E2A3B"/><path d="M32.6,96 L32.6,94 Q32.6,91.4 35.8,91.4 Q40.4,91.4 40.4,96 Z" fill="#2E2A3B"/><rect x="29.8" y="25" width="4.4" height="7" fill="#DCB18C"/><path d="M32,30.4 Q41.6,30.4 43.6,38 L45.4,57.5 Q46.2,65.5 38,65.5 L26,65.5 Q17.8,65.5 18.6,57.5 L20.4,38 Q22.4,30.4 32,30.4 Z" fill="url(#g_yomi)"/><path d="M26.5,31.5 Q32,34.5 37.5,31.5" stroke="#A63229" stroke-width="2.2" fill="none" stroke-linecap="round"/><path d="M22,58 Q32,60.5 42,58" stroke="#A63229" stroke-width="1.4" fill="none" opacity="0.55"/><path d="M21.5,37 Q19.5,46 19,54" stroke="#CA3D32" stroke-width="5" fill="none" stroke-linecap="round"/><circle cx="19" cy="55.5" r="2.4" fill="#F4C59C"/><path d="M42.5,37 Q48,45 40.5,49" stroke="#CA3D32" stroke-width="5" fill="none" stroke-linecap="round"/><circle cx="39.5" cy="49.5" r="2.4" fill="#F4C59C"/><circle cx="32" cy="19" r="10.2" fill="#F4C59C"/><path d="M21.8,20 Q21.4,8.6 32,8.4 Q42.6,8.6 42.2,20 L42.2,15.5 Q42,12.6 37.5,12.8 L26.5,12.8 Q22,12.6 21.8,15.5 Z" fill="#2E2A3B"/><circle cx="27.8" cy="20.6" r="1.15" fill="#2A2A35"/><circle cx="36.2" cy="20.6" r="1.15" fill="#2A2A35"/><path d="M26.4,17.4 Q27.8,16.6 29.2,17.2 M34.8,17.2 Q36.2,16.6 37.6,17.4" stroke="#4A4050" stroke-width="0.8" fill="none" stroke-linecap="round" opacity="0.7"/><path d="M30.4,25 Q32,26.6 33.6,25" stroke="#B0654A" stroke-width="1" fill="none" stroke-linecap="round"/><ellipse cx="25" cy="23.6" rx="1.9" ry="1.15" fill="#F2937E" opacity="0.42"/><ellipse cx="39" cy="23.6" rx="1.9" ry="1.15" fill="#F2937E" opacity="0.42"/><rect x="34.8" y="42.6" width="11.4" height="14.2" rx="1.5" fill="#2E3244"/><rect x="36" y="43.9" width="9" height="11.6" rx="0.8" fill="#EAF2FB"/><path d="M37.4,53.4 L39.8,50.4 L41.4,51.8 L43.6,46.6" stroke="#38B764" stroke-width="1.3" fill="none" stroke-linecap="round" stroke-linejoin="round"/><path d="M43.6,46.6 L41.9,46.9 M43.6,46.6 L43.5,48.4" stroke="#38B764" stroke-width="1.1" stroke-linecap="round"/></g></svg>