<svg xmlns="http://www.w3.org/2000/svg" viewBox="0 0 32 32" width="512" height="512" shape-rendering="crispEdges"><rect width="32" height="32" fill="#FBDCD8"/><g opacity="1"><rect x="12" y="1" width="8" height="1" fill="#1A1C2C"/><rect x="10" y="2" width="1" height="1" fill="#1A1C2C"/><rect x="11" y="2" width="10" height="1" fill="#2A8C4A"/><rect x="21" y="2" width="1" height="1" fill="#1A1C2C"/><rect x="9" y="3" width="1" height="1" fill="#1A1C2C"/><rect x="10" y="3" width="2" height="1" fill="#2A8C4A"/><rect x="12" y="3" width="4" height="1" fill="#4CC77E"/><rect x="16" y="3" width="6" height="1" fill="#2A8C4A"/><rect x="22" y="3" width="1" height="1" fill="#1A1C2C"/><rect x="8" y="4" width="1" height="1" fill="#1A1C2C"/><rect x="9" y="4" width="4" height="1" fill="#2A8C4A"/><rect x="13" y="4" width="2" height="1" fill="#4CC77E"/><rect x="15" y="4" width="8" height="1" fill="#2A8C4A"/><rect x="23" y="4" width="1" height="1" fill="#1A1C2C"/><rect x="7" y="5" width="1" height="1" fill="#1A1C2C"/><rect x="8" y="5" width="16" height="1" fill="#2A8C4A"/><rect x="24" y="5" width="1" height="1" fill="#1A1C2C"/><rect x="7" y="6" width="1" height="1" fill="#1A1C2C"/><rect x="8" y="6" width="16" height="1" fill="#2A8C4A"/><rect x="24" y="6" width="1" height="1" fill="#1A1C2C"/><rect x="6" y="7" width="1" height="1" fill="#1A1C2C"/><rect x="7" y="7" width="18" height="1" fill="#2A8C4A"/><rect x="25" y="7" width="1" height="1" fill="#1A1C2C"/><rect x="6" y="8" width="1" height="1" fill="#1A1C2C"/><rect x="7" y="8" width="4" height="1" fill="#2A8C4A"/><rect x="11" y="8" width="10" height="1" fill="#F0C297"/><rect x="21" y="8" width="4" height="1" fill="#2A8C4A"/><rect x="25" y="8" width="1" height="1" fill="#1A1C2C"/><rect x="6" y="9" width="1" height="1" fill="#1A1C2C"/><rect x="7" y="9" width="1" height="1" fill="#2A8C4A"/><rect x="8" y="9" width="16" height="1" fill="#F0C297"/><rect x="24" y="9" width="1" height="1" fill="#2A8C4A"/><rect x="25" y="9" width="1" height="1" fill="#1A1C2C"/><rect x="6" y="10" width="1" height="1" fill="#1A1C2C"/><rect x="7" y="10" width="4" height="1" fill="#F0C297"/><rect x="11" y="10" width="2" height="1" fill="#2A8C4A"/><rect x="13" y="10" width="6" height="1" fill="#F0C297"/><rect x="19" y="10" width="2" height="1" fill="#2A8C4A"/><rect x="21" y="10" width="3" height="1" fill="#F0C297"/><rect x="24" y="10" width="1" height="1" fill="#D9A06C"/><rect x="25" y="10" width="1" height="1" fill="#1A1C2C"/><rect x="6" y="11" width="1" height="1" fill="#1A1C2C"/><rect x="7" y="11" width="4" height="1" fill="#F0C297"/><rect x="11" y="11" width="2" height="1" fill="#1A1C2C"/><rect x="13" y="11" width="6" height="1" fill="#F0C297"/><rect x="19" y="11" width="2" height="1" fill="#1A1C2C"/><rect x="21" y="11" width="3" height="1" fill="#F0C297"/><rect x="24" y="11" width="1" height="1" fill="#D9A06C"/><rect x="25" y="11" width="1" height="1" fill="#1A1C2C"/><rect x="6" y="12" width="1" height="1" fill="#1A1C2C"/><rect x="7" y="12" width="4" height="1" fill="#F0C297"/><rect x="11" y="12" width="1" height="1" fill="#1A1C2C"/><rect x="12" y="12" width="1" height="1" fill="#FFFFFF"/><rect x="13" y="12" width="6" height="1" fill="#F0C297"/><rect x="19" y="12" width="1" height="1" fill="#1A1C2C"/><rect x="20" y="12" width="1" height="1" fill="#FFFFFF"/><rect x="21" y="12" width="3" height="1" fill="#F0C297"/><rect x="24" y="12" width="1" height="1" fill="#D9A06C"/><rect x="25" y="12" width="1" height="1" fill="#1A1C2C"/><rect x="6" y="13" width="1" height="1" fill="#1A1C2C"/><rect x="7" y="13" width="4" height="1" fill="#F0C297"/><rect x="11" y="13" width="2" height="1" fill="#1A1C2C"/><rect x="13" y="13" width="6" height="1" fill="#F0C297"/><rect x="19" y="13" width="2" height="1" fill="#1A1C2C"/><rect x="21" y="13" width="3" height="1" fill="#F0C297"/><rect x="24" y="13" width="1" height="1" fill="#D9A06C"/><rect x="25" y="13" width="1" height="1" fill="#1A1C2C"/><rect x="7" y="14" width="1" height="1" fill="#1A1C2C"/><rect x="8" y="14" width="2" height="1" fill="#E8A87C"/><rect x="10" y="14" width="12" height="1" fill="#F0C297"/><rect x="22" y="14" width="2" height="1" fill="#E8A87C"/><rect x="24" y="14" width="1" height="1" fill="#1A1C2C"/><rect x="8" y="15" width="1" height="1" fill="#1A1C2C"/><rect x="9" y="15" width="6" height="1" fill="#F0C297"/><rect x="15" y="15" width="2" height="1" fill="#1A1C2C"/><rect x="17" y="15" width="6" height="1" fill="#F0C297"/><rect x="23" y="15" width="1" height="1" fill="#1A1C2C"/><rect x="9" y="16" width="1" height="1" fill="#1A1C2C"/><rect x="10" y="16" width="3" height="1" fill="#F0C297"/><rect x="13" y="16" width="6" height="1" fill="#D9A06C"/><rect x="19" y="16" width="3" height="1" fill="#F0C297"/><rect x="22" y="16" width="1" height="1" fill="#1A1C2C"/><rect x="11" y="17" width="10" height="1" fill="#1A1C2C"/><rect x="26" y="17" width="2" height="1" fill="#41A6F6"/><rect x="10" y="18" width="12" height="1" fill="#1A1C2C"/><rect x="25" y="18" width="1" height="1" fill="#41A6F6"/><rect x="26" y="18" width="1" height="1" fill="#8FD0FF"/><rect x="27" y="18" width="2" height="1" fill="#41A6F6"/><rect x="7" y="19" width="3" height="1" fill="#1A1C2C"/><rect x="10" y="19" width="12" height="1" fill="#E64539"/><rect x="22" y="19" width="2" height="1" fill="#1A1C2C"/><rect x="24" y="19" width="1" height="1" fill="#41A6F6"/><rect x="25" y="19" width="1" height="1" fill="#38B764"/><rect x="26" y="19" width="1" height="1" fill="#41A6F6"/><rect x="27" y="19" width="1" height="1" fill="#38B764"/><rect x="28" y="19" width="2" height="1" fill="#41A6F6"/><rect x="7" y="20" width="1" height="1" fill="#1A1C2C"/><rect x="8" y="20" width="1" height="1" fill="#E64539"/><rect x="9" y="20" width="2" height="1" fill="#B93529"/><rect x="11" y="20" width="7" height="1" fill="#E64539"/><rect x="18" y="20" width="4" height="1" fill="#F79A8E"/><rect x="22" y="20" width="1" height="1" fill="#B93529"/><rect x="23" y="20" width="1" height="1" fill="#E64539"/><rect x="24" y="20" width="2" height="1" fill="#41A6F6"/><rect x="26" y="20" width="1" height="1" fill="#38B764"/><rect x="27" y="20" width="3" height="1" fill="#41A6F6"/><rect x="7" y="21" width="1" height="1" fill="#1A1C2C"/><rect x="8" y="21" width="1" height="1" fill="#E64539"/><rect x="9" y="21" width="2" height="1" fill="#B93529"/><rect x="11" y="21" width="10" height="1" fill="#E64539"/><rect x="21" y="21" width="1" height="1" fill="#F79A8E"/><rect x="22" y="21" width="1" height="1" fill="#B93529"/><rect x="23" y="21" width="1" height="1" fill="#E64539"/><rect x="24" y="21" width="1" height="1" fill="#41A6F6"/><rect x="25" y="21" width="1" height="1" fill="#38B764"/><rect x="26" y="21" width="4" height="1" fill="#41A6F6"/><rect x="7" y="22" width="1" height="1" fill="#1A1C2C"/><rect x="8" y="22" width="1" height="1" fill="#E64539"/><rect x="9" y="22" width="2" height="1" fill="#B93529"/><rect x="11" y="22" width="11" height="1" fill="#E64539"/><rect x="22" y="22" width="1" height="1" fill="#B93529"/><rect x="23" y="22" width="1" height="1" fill="#E64539"/><rect x="24" y="22" width="4" height="1" fill="#41A6F6"/><rect x="28" y="22" width="1" height="1" fill="#38B764"/><rect x="29" y="22" width="1" height="1" fill="#41A6F6"/><rect x="7" y="23" width="1" height="1" fill="#1A1C2C"/><rect x="8" y="23" width="1" height="1" fill="#E64539"/><rect x="9" y="23" width="2" height="1" fill="#B93529"/><rect x="11" y="23" width="11" height="1" fill="#E64539"/><rect x="22" y="23" width="1" height="1" fill="#B93529"/><rect x="23" y="23" width="1" height="1" fill="#E64539"/><rect x="24" y="23" width="1" height="1" fill="#1A1C2C"/><rect x="25" y="23" width="4" height="1" fill="#41A6F6"/><rect x="7" y="24" width="1" height="1" fill="#1A1C2C"/><rect x="8" y="24" width="1" height="1" fill="#E64539"/><rect x="9" y="24" width="2" height="1" fill="#B93529"/><rect x="11" y="24" width="11" height="1" fill="#E64539"/><rect x="22" y="24" width="1" height="1" fill="#B93529"/><rect x="23" y="24" width="1" height="1" fill="#E64539"/><rect x="24" y="24" width="1" height="1" fill="#1A1C2C"/><rect x="26" y="24" width="2" height="1" fill="#41A6F6"/><rect x="7" y="25" width="1" height="1" fill="#1A1C2C"/><rect x="8" y="25" width="1" height="1" fill="#F0C297"/><rect x="9" y="25" width="1" height="1" fill="#E64539"/><rect x="10" y="25" width="1" height="1" fill="#B93529"/><rect x="11" y="25" width="12" height="1" fill="#E64539"/><rect x="23" y="25" width="1" height="1" fill="#F0C297"/><rect x="24" y="25" width="1" height="1" fill="#1A1C2C"/><rect x="27" y="25" width="1" height="1" fill="#1A1C2C"/><rect x="7" y="26" width="1" height="1" fill="#1A1C2C"/><rect x="8" y="26" width="1" height="1" fill="#F0C297"/><rect x="9" y="26" width="1" height="1" fill="#E64539"/><rect x="10" y="26" width="1" height="1" fill="#B93529"/><rect x="11" y="26" width="12" height="1" fill="#E64539"/><rect x="23" y="26" width="1" height="1" fill="#F0C297"/><rect x="24" y="26" width="1" height="1" fill="#1A1C2C"/><rect x="26" y="26" width="1" height="1" fill="#1A1C2C"/><rect x="28" y="26" width="1" height="1" fill="#1A1C2C"/><rect x="8" y="27" width="1" height="1" fill="#1A1C2C"/><rect x="10" y="27" width="12" height="1" fill="#B93529"/><rect x="23" y="27" width="1" height="1" fill="#1A1C2C"/><rect x="10" y="28" width="12" height="1" fill="#1A1C2C"/><rect x="10" y="29" width="1" height="1" fill="#1A1C2C"/><rect x="11" y="29" width="3" height="1" fill="#E64539"/><rect x="14" y="29" width="1" height="1" fill="#1A1C2C"/><rect x="17" y="29" width="1" height="1" fill="#1A1C2C"/><rect x="18" y="29" width="3" height="1" fill="#E64539"/><rect x="21" y="29" width="1" height="1" fill="#1A1C2C"/><rect x="10" y="30" width="1" height="1" fill="#1A1C2C"/><rect x="11" y="30" width="3" height="1" fill="#E64539"/><rect x="14" y="30" width="1" height="1" fill="#1A1C2C"/><rect x="17" y="30" width="1" height="1" fill="#1A1C2C"/><rect x="18" y="30" width="3" height="1" fill="#E64539"/><rect x="21" y="30" width="1" height="1" fill="#1A1C2C"/><rect x="9" y="31" width="2" height="1" fill="#F2C6C0"/><rect x="11" y="31" width="3" height="1" fill="#1A1C2C"/><rect x="14" y="31" width="4" height="1" fill="#F2C6C0"/><rect x="18" y="31" width="3" height="1" fill="#1A1C2C"/><rect x="21" y="31" width="2" height="1" fill="#F2C6C0"/><animate attributeName="opacity" values="1;1;0;0" keyTimes="0;0.5;0.5;1" dur="1s" repeatCount="indefinite" calcMode="discrete"/></g><g opacity="0"><rect x="12" y="2" width="8" height="1" fill="#1A1C2C"/><rect x="10" y="3" width="1" height="1" fill="#1A1C2C"/><rect x="11" y="3" width="10" height="1" fill="#2A8C4A"/><rect x="21" y="3" width="1" height="1" fill="#1A1C2C"/><rect x="9" y="4" width="1" height="1" fill="#1A1C2C"/><rect x="10" y="4" width="2" height="1" fill="#2A8C4A"/><rect x="12" y="4" width="4" height="1" fill="#4CC77E"/><rect x="16" y="4" width="6" height="1" fill="#2A8C4A"/><rect x="22" y="4" width="1" height="1" fill="#1A1C2C"/><rect x="8" y="5" width="1" height="1" fill="#1A1C2C"/><rect x="9" y="5" width="4" height="1" fill="#2A8C4A"/><rect x="13" y="5" width="2" height="1" fill="#4CC77E"/><rect x="15" y="5" width="8" height="1" fill="#2A8C4A"/><rect x="23" y="5" width="1" height="1" fill="#1A1C2C"/><rect x="7" y="6" width="1" height="1" fill="#1A1C2C"/><rect x="8" y="6" width="16" height="1" fill="#2A8C4A"/><rect x="24" y="6" width="1" height="1" fill="#1A1C2C"/><rect x="7" y="7" width="1" height="1" fill="#1A1C2C"/><rect x="8" y="7" width="16" height="1" fill="#2A8C4A"/><rect x="24" y="7" width="1" height="1" fill="#1A1C2C"/><rect x="6" y="8" width="1" height="1" fill="#1A1C2C"/><rect x="7" y="8" width="18" height="1" fill="#2A8C4A"/><rect x="25" y="8" width="1" height="1" fill="#1A1C2C"/><rect x="6" y="9" width="1" height="1" fill="#1A1C2C"/><rect x="7" y="9" width="4" height="1" fill="#2A8C4A"/><rect x="11" y="9" width="10" height="1" fill="#F0C297"/><rect x="21" y="9" width="4" height="1" fill="#2A8C4A"/><rect x="25" y="9" width="1" height="1" fill="#1A1C2C"/><rect x="6" y="10" width="1" height="1" fill="#1A1C2C"/><rect x="7" y="10" width="1" height="1" fill="#2A8C4A"/><rect x="8" y="10" width="16" height="1" fill="#F0C297"/><rect x="24" y="10" width="1" height="1" fill="#2A8C4A"/><rect x="25" y="10" width="1" height="1" fill="#1A1C2C"/><rect x="6" y="11" width="1" height="1" fill="#1A1C2C"/><rect x="7" y="11" width="4" height="1" fill="#F0C297"/><rect x="11" y="11" width="2" height="1" fill="#2A8C4A"/><rect x="13" y="11" width="6" height="1" fill="#F0C297"/><rect x="19" y="11" width="2" height="1" fill="#2A8C4A"/><rect x="21" y="11" width="3" height="1" fill="#F0C297"/><rect x="24" y="11" width="1" height="1" fill="#D9A06C"/><rect x="25" y="11" width="1" height="1" fill="#1A1C2C"/><rect x="6" y="12" width="1" height="1" fill="#1A1C2C"/><rect x="7" y="12" width="4" height="1" fill="#F0C297"/><rect x="11" y="12" width="2" height="1" fill="#1A1C2C"/><rect x="13" y="12" width="6" height="1" fill="#F0C297"/><rect x="19" y="12" width="2" height="1" fill="#1A1C2C"/><rect x="21" y="12" width="3" height="1" fill="#F0C297"/><rect x="24" y="12" width="1" height="1" fill="#D9A06C"/><rect x="25" y="12" width="1" height="1" fill="#1A1C2C"/><rect x="6" y="13" width="1" height="1" fill="#1A1C2C"/><rect x="7" y="13" width="4" height="1" fill="#F0C297"/><rect x="11" y="13" width="1" height="1" fill="#1A1C2C"/><rect x="12" y="13" width="1" height="1" fill="#FFFFFF"/><rect x="13" y="13" width="6" height="1" fill="#F0C297"/><rect x="19" y="13" width="1" height="1" fill="#1A1C2C"/><rect x="20" y="13" width="1" height="1" fill="#FFFFFF"/><rect x="21" y="13" width="3" height="1" fill="#F0C297"/><rect x="24" y="13" width="1" height="1" fill="#D9A06C"/><rect x="25" y="13" width="1" height="1" fill="#1A1C2C"/><rect x="6" y="14" width="1" height="1" fill="#1A1C2C"/><rect x="7" y="14" width="4" height="1" fill="#F0C297"/><rect x="11" y="14" width="2" height="1" fill="#1A1C2C"/><rect x="13" y="14" width="6" height="1" fill="#F0C297"/><rect x="19" y="14" width="2" height="1" fill="#1A1C2C"/><rect x="21" y="14" width="3" height="1" fill="#F0C297"/><rect x="24" y="14" width="1" height="1" fill="#D9A06C"/><rect x="25" y="14" width="1" height="1" fill="#1A1C2C"/><rect x="7" y="15" width="1" height="1" fill="#1A1C2C"/><rect x="8" y="15" width="2" height="1" fill="#E8A87C"/><rect x="10" y="15" width="12" height="1" fill="#F0C297"/><rect x="22" y="15" width="2" height="1" fill="#E8A87C"/><rect x="24" y="15" width="1" height="1" fill="#1A1C2C"/><rect x="8" y="16" width="1" height="1" fill="#1A1C2C"/><rect x="9" y="16" width="6" height="1" fill="#F0C297"/><rect x="15" y="16" width="2" height="1" fill="#1A1C2C"/><rect x="17" y="16" width="6" height="1" fill="#F0C297"/><rect x="23" y="16" width="1" height="1" fill="#1A1C2C"/><rect x="9" y="17" width="1" height="1" fill="#1A1C2C"/><rect x="10" y="17" width="3" height="1" fill="#F0C297"/><rect x="13" y="17" width="6" height="1" fill="#D9A06C"/><rect x="19" y="17" width="3" height="1" fill="#F0C297"/><rect x="22" y="17" width="1" height="1" fill="#1A1C2C"/><rect x="11" y="18" width="10" height="1" fill="#1A1C2C"/><rect x="26" y="18" width="2" height="1" fill="#41A6F6"/><rect x="10" y="19" width="12" height="1" fill="#1A1C2C"/><rect x="25" y="19" width="1" height="1" fill="#41A6F6"/><rect x="26" y="19" width="1" height="1" fill="#8FD0FF"/><rect x="27" y="19" width="2" height="1" fill="#41A6F6"/><rect x="7" y="20" width="3" height="1" fill="#1A1C2C"/><rect x="10" y="20" width="12" height="1" fill="#E64539"/><rect x="22" y="20" width="2" height="1" fill="#1A1C2C"/><rect x="24" y="20" width="1" height="1" fill="#41A6F6"/><rect x="25" y="20" width="1" height="1" fill="#38B764"/><rect x="26" y="20" width="1" height="1" fill="#41A6F6"/><rect x="27" y="20" width="1" height="1" fill="#38B764"/><rect x="28" y="20" width="2" height="1" fill="#41A6F6"/><rect x="7" y="21" width="1" height="1" fill="#1A1C2C"/><rect x="8" y="21" width="1" height="1" fill="#E64539"/><rect x="9" y="21" width="2" height="1" fill="#B93529"/><rect x="11" y="21" width="7" height="1" fill="#E64539"/><rect x="18" y="21" width="4" height="1" fill="#F79A8E"/><rect x="22" y="21" width="1" height="1" fill="#B93529"/><rect x="23" y="21" width="1" height="1" fill="#E64539"/><rect x="24" y="21" width="2" height="1" fill="#41A6F6"/><rect x="26" y="21" width="1" height="1" fill="#38B764"/><rect x="27" y="21" width="3" height="1" fill="#41A6F6"/><rect x="7" y="22" width="1" height="1" fill="#1A1C2C"/><rect x="8" y="22" width="1" height="1" fill="#E64539"/><rect x="9" y="22" width="2" height="1" fill="#B93529"/><rect x="11" y="22" width="10" height="1" fill="#E64539"/><rect x="21" y="22" width="1" height="1" fill="#F79A8E"/><rect x="22" y="22" width="1" height="1" fill="#B93529"/><rect x="23" y="22" width="1" height="1" fill="#E64539"/><rect x="24" y="22" width="1" height="1" fill="#41A6F6"/><rect x="25" y="22" width="1" height="1" fill="#38B764"/><rect x="26" y="22" width="4" height="1" fill="#41A6F6"/><rect x="7" y="23" width="1" height="1" fill="#1A1C2C"/><rect x="8" y="23" width="1" height="1" fill="#E64539"/><rect x="9" y="23" width="2" height="1" fill="#B93529"/><rect x="11" y="23" width="11" height="1" fill="#E64539"/><rect x="22" y="23" width="1" height="1" fill="#B93529"/><rect x="23" y="23" width="1" height="1" fill="#E64539"/><rect x="24" y="23" width="4" height="1" fill="#41A6F6"/><rect x="28" y="23" width="1" height="1" fill="#38B764"/><rect x="29" y="23" width="1" height="1" fill="#41A6F6"/><rect x="7" y="24" width="1" height="1" fill="#1A1C2C"/><rect x="8" y="24" width="1" height="1" fill="#E64539"/><rect x="9" y="24" width="2" height="1" fill="#B93529"/><rect x="11" y="24" width="11" height="1" fill="#E64539"/><rect x="22" y="24" width="1" height="1" fill="#B93529"/><rect x="23" y="24" width="1" height="1" fill="#E64539"/><rect x="24" y="24" width="1" height="1" fill="#1A1C2C"/><rect x="25" y="24" width="4" height="1" fill="#41A6F6"/><rect x="7" y="25" width="1" height="1" fill="#1A1C2C"/><rect x="8" y="25" width="1" height="1" fill="#E64539"/><rect x="9" y="25" width="2" height="1" fill="#B93529"/><rect x="11" y="25" width="11" height="1" fill="#E64539"/><rect x="22" y="25" width="1" height="1" fill="#B93529"/><rect x="23" y="25" width="1" height="1" fill="#E64539"/><rect x="24" y="25" width="1" height="1" fill="#1A1C2C"/><rect x="26" y="25" width="2" height="1" fill="#41A6F6"/><rect x="7" y="26" width="1" height="1" fill="#1A1C2C"/><rect x="8" y="26" width="1" height="1" fill="#F0C297"/><rect x="9" y="26" width="1" height="1" fill="#E64539"/><rect x="10" y="26" width="1" height="1" fill="#B93529"/><rect x="11" y="26" width="12" height="1" fill="#E64539"/><rect x="23" y="26" width="1" height="1" fill="#F0C297"/><rect x="24" y="26" width="1" height="1" fill="#1A1C2C"/><rect x="27" y="26" width="1" height="1" fill="#1A1C2C"/><rect x="7" y="27" width="1" height="1" fill="#1A1C2C"/><rect x="8" y="27" width="1" height="1" fill="#F0C297"/><rect x="9" y="27" width="1" height="1" fill="#E64539"/><rect x="10" y="27" width="1" height="1" fill="#B93529"/><rect x="11" y="27" width="12" height="1" fill="#E64539"/><rect x="23" y="27" width="1" height="1" fill="#F0C297"/><rect x="24" y="27" width="1" height="1" fill="#1A1C2C"/><rect x="26" y="27" width="1" height="1" fill="#1A1C2C"/><rect x="28" y="27" width="1" height="1" fill="#1A1C2C"/><rect x="8" y="28" width="1" height="1" fill="#1A1C2C"/><rect x="10" y="28" width="12" height="1" fill="#B93529"/><rect x="23" y="28" width="1" height="1" fill="#1A1C2C"/><rect x="10" y="29" width="1" height="1" fill="#1A1C2C"/><rect x="11" y="29" width="3" height="1" fill="#E64539"/><rect x="14" y="29" width="1" height="1" fill="#1A1C2C"/><rect x="17" y="29" width="1" height="1" fill="#1A1C2C"/><rect x="18" y="29" width="3" height="1" fill="#E64539"/><rect x="21" y="29" width="1" height="1" fill="#1A1C2C"/><rect x="10" y="30" width="1" height="1" fill="#1A1C2C"/><rect x="11" y="30" width="3" height="1" fill="#E64539"/><rect x="14" y="30" width="1" height="1" fill="#1A1C2C"/><rect x="17" y="30" width="1" height="1" fill="#1A1C2C"/><rect x="18" y="30" width="3" height="1" fill="#E64539"/><rect x="21" y="30" width="1" height="1" fill="#1A1C2C"/><rect x="9" y="31" width="2" height="1" fill="#F2C6C0"/><rect x="11" y="31" width="3" height="1" fill="#1A1C2C"/><rect x="14" y="31" width="4" height="1" fill="#F2C6C0"/><rect x="18" y="31" width="3" height="1" fill="#1A1C2C"/><rect x="21" y="31" width="2" height="1" fill="#F2C6C0"/><animate attributeName="opacity" values="0;0;1;1" keyTimes="0;0.5;0.5;1" dur="1s" repeatCount="indefinite" calcMode="discrete"/></g></svg>