<svg xmlns="http://www.w3.org/2000/svg" width="552" height="114" shape-rendering="crispEdges"><rect width="552" height="114" fill="#F4EFDE"/><rect x="16" y="0" width="8" height="8" fill="#1A1C2C"/><rect x="24" y="0" width="8" height="8" fill="#1A1C2C"/><rect x="32" y="0" width="8" height="8" fill="#1A1C2C"/><rect x="40" y="0" width="8" height="8" fill="#1A1C2C"/><rect x="48" y="0" width="8" height="8" fill="#1A1C2C"/><rect x="56" y="0" width="8" height="8" fill="#1A1C2C"/><rect x="8" y="8" width="8" height="8" fill="#1A1C2C"/><rect x="16" y="8" width="8" height="8" fill="#FFC825"/><rect x="24" y="8" width="8" height="8" fill="#FFC825"/><rect x="32" y="8" width="8" height="8" fill="#FFC825"/><rect x="40" y="8" width="8" height="8" fill="#FFC825"/><rect x="48" y="8" width="8" height="8" fill="#FFC825"/><rect x="56" y="8" width="8" height="8" fill="#FFC825"/><rect x="64" y="8" width="8" height="8" fill="#1A1C2C"/><rect x="0" y="16" width="8" height="8" fill="#1A1C2C"/><rect x="8" y="16" width="8" height="8" fill="#FFC825"/><rect x="16" y="16" width="8" height="8" fill="#1A1C2C"/><rect x="24" y="16" width="8" height="8" fill="#FFC825"/><rect x="32" y="16" width="8" height="8" fill="#FFC825"/><rect x="40" y="16" width="8" height="8" fill="#FFC825"/><rect x="48" y="16" width="8" height="8" fill="#FFC825"/><rect x="56" y="16" width="8" height="8" fill="#1A1C2C"/><rect x="64" y="16" width="8" height="8" fill="#FFC825"/><rect x="72" y="16" width="8" height="8" fill="#1A1C2C"/><rect x="0" y="24" width="8" height="8" fill="#1A1C2C"/><rect x="8" y="24" width="8" height="8" fill="#FFC825"/><rect x="16" y="24" width="8" height="8" fill="#FFC825"/><rect x="24" y="24" width="8" height="8" fill="#1A1C2C"/><rect x="32" y="24" width="8" height="8" fill="#FFC825"/><rect x="40" y="24" width="8" height="8" fill="#FFC825"/><rect x="48" y="24" width="8" height="8" fill="#1A1C2C"/><rect x="56" y="24" width="8" height="8" fill="#FFC825"/><rect x="64" y="24" width="8" height="8" fill="#FFC825"/><rect x="72" y="24" width="8" height="8" fill="#1A1C2C"/><rect x="0" y="32" width="8" height="8" fill="#1A1C2C"/><rect x="8" y="32" width="8" height="8" fill="#FFC825"/><rect x="16" y="32" width="8" height="8" fill="#FFC825"/><rect x="24" y="32" width="8" height="8" fill="#FFC825"/><rect x="32" y="32" width="8" height="8" fill="#1A1C2C"/><rect x="40" y="32" width="8" height="8" fill="#1A1C2C"/><rect x="48" y="32" width="8" height="8" fill="#FFC825"/><rect x="56" y="32" width="8" height="8" fill="#FFC825"/><rect x="64" y="32" width="8" height="8" fill="#FFC825"/><rect x="72" y="32" width="8" height="8" fill="#1A1C2C"/><rect x="0" y="40" width="8" height="8" fill="#1A1C2C"/><rect x="8" y="40" width="8" height="8" fill="#FFC825"/><rect x="16" y="40" width="8" height="8" fill="#1A1C2C"/><rect x="24" y="40" width="8" height="8" fill="#1A1C2C"/><rect x="32" y="40" width="8" height="8" fill="#1A1C2C"/><rect x="40" y="40" width="8" height="8" fill="#1A1C2C"/><rect x="48" y="40" width="8" height="8" fill="#1A1C2C"/><rect x="56" y="40" width="8" height="8" fill="#1A1C2C"/><rect x="64" y="40" width="8" height="8" fill="#FFC825"/><rect x="72" y="40" width="8" height="8" fill="#1A1C2C"/><rect x="0" y="48" width="8" height="8" fill="#1A1C2C"/><rect x="8" y="48" width="8" height="8" fill="#FFC825"/><rect x="16" y="48" width="8" height="8" fill="#FFC825"/><rect x="24" y="48" width="8" height="8" fill="#FFC825"/><rect x="32" y="48" width="8" height="8" fill="#1A1C2C"/><rect x="40" y="48" width="8" height="8" fill="#1A1C2C"/><rect x="48" y="48" width="8" height="8" fill="#FFC825"/><rect x="56" y="48" width="8" height="8" fill="#FFC825"/><rect x="64" y="48" width="8" height="8" fill="#FFC825"/><rect x="72" y="48" width="8" height="8" fill="#1A1C2C"/><rect x="0" y="56" width="8" height="8" fill="#1A1C2C"/><rect x="8" y="56" width="8" height="8" fill="#FFC825"/><rect x="16" y="56" width="8" height="8" fill="#1A1C2C"/><rect x="24" y="56" width="8" height="8" fill="#1A1C2C"/><rect x="32" y="56" width="8" height="8" fill="#1A1C2C"/><rect x="40" y="56" width="8" height="8" fill="#1A1C2C"/><rect x="48" y="56" width="8" height="8" fill="#1A1C2C"/><rect x="56" y="56" width="8" height="8" fill="#1A1C2C"/><rect x="64" y="56" width="8" height="8" fill="#D9A420"/><rect x="72" y="56" width="8" height="8" fill="#1A1C2C"/><rect x="8" y="64" width="8" height="8" fill="#1A1C2C"/><rect x="16" y="64" width="8" height="8" fill="#FFC825"/><rect x="24" y="64" width="8" height="8" fill="#FFC825"/><rect x="32" y="64" width="8" height="8" fill="#1A1C2C"/><rect x="40" y="64" width="8" height="8" fill="#1A1C2C"/><rect x="48" y="64" width="8" height="8" fill="#FFC825"/><rect x="56" y="64" width="8" height="8" fill="#FFC825"/><rect x="64" y="64" width="8" height="8" fill="#D9A420"/><rect x="72" y="64" width="8" height="8" fill="#1A1C2C"/><rect x="16" y="72" width="8" height="8" fill="#1A1C2C"/><rect x="24" y="72" width="8" height="8" fill="#1A1C2C"/><rect x="32" y="72" width="8" height="8" fill="#1A1C2C"/><rect x="40" y="72" width="8" height="8" fill="#1A1C2C"/><rect x="48" y="72" width="8" height="8" fill="#1A1C2C"/><rect x="56" y="72" width="8" height="8" fill="#1A1C2C"/><rect x="96" y="16" width="8" height="8" fill="#1A1C2C"/><rect x="104" y="16" width="8" height="8" fill="#1A1C2C"/><rect x="112" y="16" width="8" height="8" fill="#1A1C2C"/><rect x="120" y="16" width="8" height="8" fill="#1A1C2C"/><rect x="96" y="24" width="8" height="8" fill="#1A1C2C"/><rect x="128" y="24" width="8" height="8" fill="#1A1C2C"/><rect x="96" y="32" width="8" height="8" fill="#1A1C2C"/><rect x="104" y="32" width="8" height="8" fill="#1A1C2C"/><rect x="112" y="32" width="8" height="8" fill="#1A1C2C"/><rect x="120" y="32" width="8" height="8" fill="#1A1C2C"/><rect x="96" y="40" width="8" height="8" fill="#1A1C2C"/><rect x="96" y="48" width="8" height="8" fill="#1A1C2C"/><rect x="144" y="16" width="8" height="8" fill="#1A1C2C"/><rect x="152" y="16" width="8" height="8" fill="#1A1C2C"/><rect x="160" y="16" width="8" height="8" fill="#1A1C2C"/><rect x="152" y="24" width="8" height="8" fill="#1A1C2C"/><rect x="152" y="32" width="8" height="8" fill="#1A1C2C"/><rect x="152" y="40" width="8" height="8" fill="#1A1C2C"/><rect x="144" y="48" width="8" height="8" fill="#1A1C2C"/><rect x="152" y="48" width="8" height="8" fill="#1A1C2C"/><rect x="160" y="48" width="8" height="8" fill="#1A1C2C"/><rect x="176" y="16" width="8" height="8" fill="#1A1C2C"/><rect x="208" y="16" width="8" height="8" fill="#1A1C2C"/><rect x="184" y="24" width="8" height="8" fill="#1A1C2C"/><rect x="200" y="24" width="8" height="8" fill="#1A1C2C"/><rect x="192" y="32" width="8" height="8" fill="#1A1C2C"/><rect x="184" y="40" width="8" height="8" fill="#1A1C2C"/><rect x="200" y="40" width="8" height="8" fill="#1A1C2C"/><rect x="176" y="48" width="8" height="8" fill="#1A1C2C"/><rect x="208" y="48" width="8" height="8" fill="#1A1C2C"/><rect x="224" y="16" width="8" height="8" fill="#1A1C2C"/><rect x="232" y="16" width="8" height="8" fill="#1A1C2C"/><rect x="240" y="16" width="8" height="8" fill="#1A1C2C"/><rect x="248" y="16" width="8" height="8" fill="#1A1C2C"/><rect x="256" y="16" width="8" height="8" fill="#1A1C2C"/><rect x="224" y="24" width="8" height="8" fill="#1A1C2C"/><rect x="224" y="32" width="8" height="8" fill="#1A1C2C"/><rect x="232" y="32" width="8" height="8" fill="#1A1C2C"/><rect x="240" y="32" width="8" height="8" fill="#1A1C2C"/><rect x="248" y="32" width="8" height="8" fill="#1A1C2C"/><rect x="224" y="40" width="8" height="8" fill="#1A1C2C"/><rect x="224" y="48" width="8" height="8" fill="#1A1C2C"/><rect x="232" y="48" width="8" height="8" fill="#1A1C2C"/><rect x="240" y="48" width="8" height="8" fill="#1A1C2C"/><rect x="248" y="48" width="8" height="8" fill="#1A1C2C"/><rect x="256" y="48" width="8" height="8" fill="#1A1C2C"/><rect x="272" y="16" width="8" height="8" fill="#1A1C2C"/><rect x="272" y="24" width="8" height="8" fill="#1A1C2C"/><rect x="272" y="32" width="8" height="8" fill="#1A1C2C"/><rect x="272" y="40" width="8" height="8" fill="#1A1C2C"/><rect x="272" y="48" width="8" height="8" fill="#1A1C2C"/><rect x="280" y="48" width="8" height="8" fill="#1A1C2C"/><rect x="288" y="48" width="8" height="8" fill="#1A1C2C"/><rect x="296" y="48" width="8" height="8" fill="#1A1C2C"/><rect x="304" y="48" width="8" height="8" fill="#1A1C2C"/><rect x="320" y="16" width="8" height="8" fill="#1A1C2C"/><rect x="352" y="16" width="8" height="8" fill="#1A1C2C"/><rect x="328" y="24" width="8" height="8" fill="#1A1C2C"/><rect x="344" y="24" width="8" height="8" fill="#1A1C2C"/><rect x="336" y="32" width="8" height="8" fill="#1A1C2C"/><rect x="336" y="40" width="8" height="8" fill="#1A1C2C"/><rect x="336" y="48" width="8" height="8" fill="#1A1C2C"/><rect x="368" y="16" width="8" height="8" fill="#1A1C2C"/><rect x="376" y="16" width="8" height="8" fill="#1A1C2C"/><rect x="384" y="16" width="8" height="8" fill="#1A1C2C"/><rect x="392" y="16" width="8" height="8" fill="#1A1C2C"/><rect x="400" y="16" width="8" height="8" fill="#1A1C2C"/><rect x="368" y="24" width="8" height="8" fill="#1A1C2C"/><rect x="368" y="32" width="8" height="8" fill="#1A1C2C"/><rect x="376" y="32" width="8" height="8" fill="#1A1C2C"/><rect x="384" y="32" width="8" height="8" fill="#1A1C2C"/><rect x="392" y="32" width="8" height="8" fill="#1A1C2C"/><rect x="368" y="40" width="8" height="8" fill="#1A1C2C"/><rect x="368" y="48" width="8" height="8" fill="#1A1C2C"/><rect x="376" y="48" width="8" height="8" fill="#1A1C2C"/><rect x="384" y="48" width="8" height="8" fill="#1A1C2C"/><rect x="392" y="48" width="8" height="8" fill="#1A1C2C"/><rect x="400" y="48" width="8" height="8" fill="#1A1C2C"/><rect x="416" y="16" width="8" height="8" fill="#1A1C2C"/><rect x="448" y="16" width="8" height="8" fill="#1A1C2C"/><rect x="416" y="24" width="8" height="8" fill="#1A1C2C"/><rect x="424" y="24" width="8" height="8" fill="#1A1C2C"/><rect x="448" y="24" width="8" height="8" fill="#1A1C2C"/><rect x="416" y="32" width="8" height="8" fill="#1A1C2C"/><rect x="432" y="32" width="8" height="8" fill="#1A1C2C"/><rect x="448" y="32" width="8" height="8" fill="#1A1C2C"/><rect x="416" y="40" width="8" height="8" fill="#1A1C2C"/><rect x="440" y="40" width="8" height="8" fill="#1A1C2C"/><rect x="448" y="40" width="8" height="8" fill="#1A1C2C"/><rect x="416" y="48" width="8" height="8" fill="#1A1C2C"/><rect x="448" y="48" width="8" height="8" fill="#1A1C2C"/><text x="96" y="102" font-family="Noto Sans CJK JP, sans-serif" font-size="16" fill="#1A1C2C">ピクセルを、円に。 — AIが経営する会社</text></svg>